<svg width="491" height="319" viewBox="0 0 491 319" fill="none" xmlns="http://www.w3.org/2000/svg">
<path d="M94.3733 95.5C38.3733 114.7 8.37325 250.833 0.373253 316.5L0 318.001H152.373C179.173 315.601 181.54 290.001 179.373 277.501H62.8733C56.0733 186.301 104.373 140.834 129.373 129.501C172.04 129.334 263.973 129.101 290.373 129.501C316.773 129.901 321.373 103.334 320.373 90.001H282.873C281.673 68.801 286.04 49.8343 288.373 43.001C293.173 38.601 299.373 38.501 301.873 39.001C311.073 38.601 330.04 53.1676 338.373 60.501C346.773 66.101 350.54 80.501 351.373 87.001L352.873 128.001H485.873L490.873 89H401.873C385.373 -16.9989 335.873 2.5015 251.373 0L229.873 95.5H94.3733Z" fill="#F2CD00"/>
<path d="M161.873 196.501L177.873 155.001H261.873L249.373 196.501H161.873Z" fill="#F2CD00"/>
<path d="M474.373 154.501H348.373C344.206 168.501 335.073 201.701 331.873 222.501C328.673 243.301 340.206 252.501 346.373 254.501H369.373L384.373 192.001H466.373L474.373 154.501Z" fill="#F2CD00"/>
<path d="M458.873 218.501H416.873L402.373 276.501H258.873C243.673 276.501 239.873 259.501 239.873 251.001V219.001H180.873C150.073 221.801 143.706 244.834 144.373 256.001H204.873V277.501C210.473 300.701 233.873 314.834 244.873 319.001H437.873L458.873 218.501Z" fill="#F2CD00"/>
</svg>
