<svg version="1.1" id="Layer_1" xmlns="http://www.w3.org/2000/svg" xmlns:xlink="http://www.w3.org/1999/xlink" x="0px" y="0px"
	 width="100%" viewBox="0 0 1024 1024" enable-background="new 0 0 1024 1024" xml:space="preserve">
<path fill="#000000" opacity="1.000000" stroke="none" 
	d="
M481.692932,296.121826 
	C501.668091,293.923370 521.267212,294.372925 540.875916,295.667114 
	C546.581482,296.043701 550.495728,298.821350 553.075806,303.848083 
	C556.325500,310.179413 557.800537,316.959229 558.281006,323.967285 
	C558.531250,327.617371 558.456665,331.301575 558.324402,334.962952 
	C558.165894,339.350555 559.550232,342.137512 564.311401,343.189148 
	C570.018372,344.449646 575.470886,346.843079 580.301331,350.072479 
	C584.794373,353.076263 588.002197,352.330841 591.612854,348.794769 
	C596.960571,343.557495 602.416626,338.435760 608.753052,334.297668 
	C620.539612,326.600342 625.312622,326.505951 635.854248,335.800354 
	C648.103455,346.600342 659.700562,358.114410 670.768738,370.134644 
	C676.680786,376.555237 677.910767,383.505737 673.808899,391.666595 
	C669.355042,400.527588 662.686768,407.414520 655.714294,414.102722 
	C652.556213,417.131989 651.588013,419.669128 654.125793,423.870392 
	C657.552917,429.544067 660.303406,435.687347 662.177490,442.103821 
	C662.983521,444.863342 664.633423,445.350952 667.227539,445.809204 
	C674.801147,447.146942 682.556091,445.788849 690.060120,447.647156 
	C692.959351,448.365112 695.950500,448.777191 698.781372,449.694122 
	C707.112610,452.392700 711.150452,457.426453 711.262390,466.234833 
	C711.484619,483.731567 711.445496,501.234070 711.284851,518.732056 
	C711.212097,526.650391 707.486633,532.340332 699.764221,535.080444 
	C694.076416,537.098633 688.290283,538.336243 682.207275,538.424988 
	C677.082825,538.499573 671.961609,539.019470 666.847046,539.440979 
	C664.565002,539.629089 662.752625,540.516602 662.013123,543.034668 
	C660.030640,549.784485 656.888489,556.054077 653.525513,562.187622 
	C651.873291,565.201111 652.373230,567.354309 654.718384,569.695312 
	C659.076721,574.046082 663.531738,578.303589 667.401428,583.141663 
	C670.885620,587.497986 673.442993,592.269226 675.316528,597.491821 
	C677.437683,603.404358 676.482727,608.726013 672.228271,613.242310 
	C659.895813,626.333862 647.928955,639.800476 633.846985,651.127380 
	C626.407532,657.111328 621.550720,657.501465 613.300720,652.902100 
	C604.740417,648.129822 597.753235,641.457275 590.986938,634.557861 
	C587.541504,631.044678 584.477112,630.385864 580.204224,633.304199 
	C575.384583,636.595886 569.888733,638.811035 564.200562,640.168396 
	C560.420288,641.070435 559.019531,642.985474 559.114990,646.798584 
	C559.378235,657.325073 558.800293,667.769104 554.459351,677.616699 
	C551.110413,685.213928 545.359680,689.315979 536.972412,689.336731 
	C520.139648,689.378418 503.306213,689.269470 486.474030,689.375427 
	C480.098450,689.415588 475.648865,686.589172 472.743744,681.127808 
	C467.597778,671.453796 466.403900,660.998901 466.629089,650.226501 
	C466.796204,642.231445 466.613525,642.362915 459.190125,639.577515 
	C454.051880,637.649597 448.737335,635.830627 444.131592,632.954224 
	C440.185760,630.489929 437.999512,631.452332 435.251862,634.349854 
	C428.356049,641.621826 420.841339,648.124268 412.166534,653.323975 
	C405.981415,657.031311 400.277985,657.208740 394.543976,652.894714 
	C390.956573,650.195679 387.253693,647.577698 384.035797,644.474243 
	C375.760742,636.493530 367.450165,628.518127 359.658752,620.074646 
	C346.336273,605.637207 346.688416,601.581360 357.759644,584.825623 
	C361.542267,579.100891 366.766968,574.570801 371.461121,569.621826 
	C373.865417,567.087097 374.329498,565.079468 372.364594,561.901917 
	C368.958466,556.393799 365.951233,550.607178 364.343994,544.233643 
	C363.461853,540.735535 361.550598,539.047058 357.589142,539.228271 
	C348.075287,539.663696 338.640106,538.553772 329.442657,536.112610 
	C318.909546,533.316833 314.953827,528.513123 314.761597,517.568237 
	C314.477722,501.407013 314.424896,485.231903 314.759888,469.072754 
	C315.021088,456.474609 319.285278,451.726135 331.609131,448.430176 
	C340.384186,446.083344 349.407166,446.212708 358.357239,445.772522 
	C361.499786,445.617920 363.162811,444.717377 364.037415,441.555328 
	C365.682465,435.607758 367.838074,429.737518 371.212128,424.580505 
	C374.116364,420.141541 373.126495,417.299377 369.490265,413.974945 
	C362.846008,407.900269 357.040863,401.155090 352.524902,393.168060 
	C348.060333,385.271912 349.609619,378.583252 354.395447,371.841431 
	C358.372681,366.238647 363.315277,361.490204 368.128723,356.660217 
	C375.996338,348.765503 383.320343,340.304291 392.234436,333.479034 
	C398.677979,328.545471 405.035919,327.467773 412.521179,331.684875 
	C420.779816,336.337585 427.784698,342.390045 434.356079,349.008148 
	C437.630249,352.305634 440.443970,353.352325 444.754761,350.669861 
	C450.116669,347.333344 455.932159,344.684937 462.071838,343.018585 
	C465.572052,342.068604 466.944427,340.141937 466.697510,336.534485 
	C466.018005,326.606232 467.480530,316.951477 470.937347,307.613556 
	C472.854370,302.435089 475.637939,298.023407 481.692932,296.121826 
M405.297607,353.714111 
	C403.123627,353.500244 402.019531,355.222961 400.768188,356.432800 
	C393.101715,363.844940 385.511993,371.336823 377.923462,378.829193 
	C372.675934,384.010284 372.633942,384.082581 377.582886,389.817657 
	C382.260498,395.238312 387.279968,400.373444 391.797058,405.920837 
	C397.659393,413.120270 399.395477,420.726746 393.979950,429.327026 
	C389.084778,437.100922 385.802979,445.751404 383.370758,454.583984 
	C381.505859,461.356354 377.420227,464.894623 370.812469,466.530396 
	C361.509491,468.833282 351.968506,468.146606 342.570068,469.195343 
	C338.894562,469.605499 337.202911,470.464386 337.265228,474.478699 
	C337.454071,486.640533 337.413239,498.808167 337.276367,510.971436 
	C337.238556,514.329529 338.249756,515.705444 341.801422,515.792725 
	C348.940186,515.968201 356.092590,516.424255 363.201080,516.930664 
	C370.948700,517.482666 379.275787,518.657288 382.312317,527.739624 
	C386.016083,538.817627 390.373810,549.589478 395.680237,559.987671 
	C398.134613,564.797058 397.895966,569.609131 395.556671,574.388306 
	C393.699799,578.181885 390.871735,581.223450 388.046906,584.299072 
	C383.015167,589.777466 378.108124,595.370483 373.312256,600.732910 
	C382.875549,610.506592 392.026825,619.701782 400.969391,629.095703 
	C403.597351,631.856323 405.480835,631.447998 408.010864,629.112610 
	C414.006989,623.578003 420.201752,618.259399 426.270660,612.802795 
	C433.110657,606.652893 439.732086,604.897644 445.731689,608.532776 
	C455.801422,614.633972 466.603546,618.763184 477.880157,621.907715 
	C484.113586,623.645935 487.454834,628.478088 488.463287,635.002747 
	C489.592651,642.309570 489.208038,649.615356 489.348694,656.927612 
	C489.386993,658.919495 489.522308,660.873352 489.904114,662.864075 
	C490.441711,665.666992 491.697388,666.727417 494.590179,666.699097 
	C506.753784,666.579956 518.920166,666.570496 531.083496,666.706909 
	C534.603943,666.746338 535.860535,665.320068 535.719971,661.953979 
	C535.372498,653.633728 536.940552,645.400269 536.794800,637.055542 
	C536.657043,629.170105 541.143372,623.689270 548.587097,621.714844 
	C558.163940,619.174683 567.057983,615.080750 575.665649,610.290283 
	C585.537842,604.796021 591.511292,605.630005 599.917603,613.364258 
	C605.797607,618.774170 612.030151,623.802246 617.882141,629.240906 
	C620.618469,631.783875 622.497925,631.421326 624.953918,628.941345 
	C633.394714,620.418030 641.940491,611.996765 650.550781,603.644409 
	C652.784790,601.477295 652.421509,599.921631 650.478882,597.814148 
	C644.835754,591.691895 639.270691,585.491455 633.852295,579.169739 
	C628.221313,572.599976 627.022766,565.450806 631.075378,557.437073 
	C635.508362,548.671204 639.800049,539.768555 642.265869,530.223999 
	C643.973389,523.614258 647.968445,520.309265 654.314148,518.392273 
	C663.940430,515.484314 673.855530,517.368713 683.558289,515.875732 
	C687.273071,515.304138 688.807922,514.474487 688.747986,510.537598 
	C688.565247,498.542358 688.575806,486.540314 688.778076,474.545380 
	C688.842957,470.699860 687.637024,469.485687 683.706116,469.183716 
	C674.118408,468.447266 664.429382,468.685547 654.969604,466.391418 
	C648.288086,464.771088 644.542969,460.754974 642.539062,454.194275 
	C639.719910,444.964508 636.271790,435.872284 631.112793,427.665985 
	C627.820618,422.429138 627.600952,417.472412 630.189514,412.106171 
	C632.015320,408.321350 634.452087,404.992706 637.276184,401.879852 
	C641.751221,396.947357 645.977905,391.788391 650.487000,386.888397 
	C652.769897,384.407593 652.778137,382.809723 650.155701,380.369049 
	C641.743225,372.539581 633.648315,364.369629 625.378174,356.385742 
	C624.111145,355.162567 623.211731,353.396729 620.965515,352.990143 
	C619.367432,354.244476 617.629700,355.521912 615.987854,356.912506 
	C609.638306,362.290527 603.518921,367.964539 596.928040,373.026001 
	C591.290100,377.355621 585.239502,378.600189 578.516052,374.250854 
	C570.087402,368.798431 560.699341,365.232666 551.056091,362.467072 
	C540.806824,359.527679 537.183289,355.055511 536.690674,344.351562 
	C536.346436,336.872345 535.957825,329.394714 535.683411,321.912964 
	C535.573669,318.919189 534.466431,317.260162 531.205872,317.279388 
	C519.041565,317.351105 506.876678,317.354462 494.712219,317.318634 
	C491.618622,317.309509 490.477875,318.520447 490.212860,321.759796 
	C489.587891,329.397766 489.368439,337.026886 489.271729,344.682434 
	C489.146454,354.594452 485.189423,359.620239 475.700714,362.302887 
	C466.513885,364.900177 457.609436,368.338287 449.567139,373.383331 
	C440.299225,379.197235 434.277405,378.529633 424.697113,369.630188 
	C418.711121,364.069580 412.484131,358.818817 405.297607,353.714111 
z"/>
<path fill="#000000" opacity="1.000000" stroke="none" 
	d="
M450.585297,551.407898 
	C434.647675,534.474365 426.642242,514.437561 426.855713,491.793610 
	C427.262238,448.668762 459.002655,413.441711 499.799072,407.547577 
	C548.832458,400.463348 593.200562,434.402527 598.221985,483.109894 
	C602.668274,526.238586 573.951233,566.166931 531.555054,575.139771 
	C500.612457,581.688660 473.616547,573.674438 450.585297,551.407898 
M575.470337,481.796234 
	C575.322266,481.319244 575.121155,480.851715 575.033813,480.363861 
	C569.337097,448.549225 537.517456,423.054504 501.170471,430.314758 
	C477.208588,435.101044 461.386688,449.719421 453.258698,472.323761 
	C445.285706,494.497192 449.508362,515.309326 464.610535,532.974792 
	C496.601624,570.395569 555.572998,557.274414 572.209412,513.252136 
	C575.953796,503.344025 577.214600,493.114532 575.470337,481.796234 
z"/>
</svg>