<?xml version="1.0" standalone="no"?>
<!DOCTYPE svg PUBLIC "-//W3C//DTD SVG 20010904//EN"
 "http://www.w3.org/TR/2001/REC-SVG-20010904/DTD/svg10.dtd">
<svg version="1.0" xmlns="http://www.w3.org/2000/svg"
 width="721.000000pt" height="732.000000pt" viewBox="0 0 721.000000 732.000000"
 preserveAspectRatio="xMidYMid meet">

<g transform="translate(0.000000,732.000000) scale(0.100000,-0.100000)"
fill="#000000" stroke="none">
<path d="M3361 7015 l-231 -229 0 -811 0 -810 -572 -572 -573 -571 -754 0
-755 -1 -220 -220 -221 -221 220 -220 220 -220 755 0 755 0 573 -573 572 -572
0 -745 0 -745 230 -230 230 -230 230 230 230 230 0 744 0 745 572 573 572 573
759 0 758 0 222 220 222 219 -226 220 -226 220 -754 2 -754 2 -572 571 -573
571 0 808 0 809 -229 231 -230 232 -230 -230z m369 -1165 l1 -805 667 -673
667 -673 765 1 766 0 59 -60 59 -60 -64 -60 -65 -59 -755 -1 -755 0 -673 -673
-672 -673 0 -740 0 -740 -70 -69 -70 -69 -70 69 -70 69 0 741 0 740 -672 672
-673 673 -765 0 -766 0 -59 60 -59 60 59 60 59 60 772 0 773 0 665 677 666
677 0 801 0 801 67 73 66 73 74 -73 73 -73 0 -806z"/>
<path d="M3057 4112 l-538 -538 535 -540 535 -539 535 535 c295 294 536 539
536 545 -1 5 -240 250 -533 543 l-532 532 -538 -538z m802 -811 l-264 -271
-267 268 -267 267 267 268 267 267 264 -264 264 -264 -264 -271z"/>
<path d="M3499 3656 l-95 -95 96 -96 95 -95 94 94 93 93 -94 97 -93 96 -96
-94z"/>
<path d="M1277 5822 l-207 -207 0 -673 0 -673 452 3 451 3 -2 428 -2 427 400
0 401 0 0 450 0 450 -643 0 -642 0 -208 -208z m1193 -247 l0 -125 -385 0
c-373 0 -386 -1 -405 -20 -20 -20 -20 -32 -20 -433 l1 -412 -136 -3 -135 -3 0
453 0 453 107 107 108 108 432 0 433 0 0 -125z"/>
<path d="M4390 5580 l0 -450 410 0 410 0 2 -427 3 -428 453 -3 452 -4 0 674 0
673 -208 208 -207 207 -658 0 -657 0 0 -450z m1302 13 l108 -108 0 -452 0
-453 -135 0 -134 0 -3 421 c-3 403 -4 421 -22 435 -16 11 -88 14 -403 14
l-383 0 0 125 0 125 432 0 433 0 107 -107z"/>
<path d="M1070 2242 l0 -647 223 -223 222 -222 645 2 645 3 3 438 2 437 -420
0 -420 0 0 430 0 430 -450 0 -450 0 0 -648z m585 -80 c0 -331 3 -412 14 -425
12 -15 54 -17 422 -17 l409 0 0 -125 0 -126 -435 1 -434 2 -121 121 -120 122
0 430 0 430 132 -2 132 -2 1 -409z"/>
<path d="M5210 2460 l0 -430 -415 0 -415 0 -1 -157 c0 -87 0 -284 -1 -438 l0
-280 648 -3 648 -2 218 217 218 217 0 653 0 653 -450 0 -450 0 0 -430z m580
-315 l-1 -430 -117 -122 -117 -123 -433 0 -432 0 0 125 0 125 395 0 c382 0
396 1 415 20 19 19 20 33 20 423 0 222 2 406 4 408 2 2 63 4 135 4 l131 0 0
-430z"/>
</g>
</svg>
