<svg xmlns="http://www.w3.org/2000/svg" viewBox="0 0 463 532" xml:space="preserve">
  <path fill="none" d="M464 138v395H1V1h463zm-71.986 150.963s-.034-.109-.127-.611c-.15-.08-.3-.16-.739-.645-.372-.308-.745-.616-1.277-1.439-.554-.43-1.107-.861-1.97-1.895-1.593-1.193-3.186-2.385-4.801-3.48 0 0 .097-.02-.21-.63-3.705-2.585-7.41-5.17-11.298-7.978 0 0-.28-.077-.615-.298a6.2 6.2 0 0 1-1.298-.768s-.334-.075-.875-.4c-20.286-11.475-43.26-15.59-64.839-23.15.377-1.544.635-2.597 1.193-4.3 3.635-5.195 7.271-10.391 11.481-15.64.206-.536.413-1.072.497-1.631 0 0 .024.121.627-.216 3.49-5.578 6.98-11.157 10.37-16.764 0 0 .025.102.603-.2.518-.928 1.036-1.857 1.42-2.812 0 0 .027.134.556-.126.365-.661.73-1.322 1.46-2.577 1.661-2.788 3.323-5.576 4.886-8.372 0 0 .012.099.644-.175 1.841-2.905 3.683-5.81 5.426-8.74 0 0 .024.099.6-.202.48-.944.957-1.888 1.35-2.849 0 0 .012.087.64-.214l5.124-7.972c2.428.816 4.742 1.594 7.075 2.242 0 0-.128.025.257.638 3.564 1.512 7.128 3.025 10.72 4.4 0 0-.137.026.221.62 2.27 1.125 4.54 2.25 6.826 3.29 0 0-.084.015.148.571 1.014.608 2.028 1.216 3.224 2.127 0 0 .334.116.757.429.614.325 1.227.65 1.857.885 0 0-.091.015.146.574.978.678 1.956 1.355 3.288 2.428.167.059.334.117.528.028 0 0-.15.018.082.533.331.173.662.345.998.391 0 0-.126.009.073.53.308.194.616.388.923.483 0 0-.097.019.06.476.367.31.734.62 1.26 1.23 0 0 .308.142.559.513.436.396.873.791 1.5 1.556 0 0 .4.112.521.247 0 0 .259.25.369.57 0 0 .29.179.596.595.384.328.768.655 1.3 1.498.545.436 1.09.872 1.874 1.836.296.231.591.462.904.556 0 0-.135.027.011.684l1.701 2.455c.607-1.269 1.065-2.226 1.437-3.205 0 0 .024.086.582-.146.613-1.01 1.227-2.022 2.133-3.22 0 0 .11-.33.507-.808 2.008-3.245 4.016-6.49 5.889-9.765 0 0 .028.136.492-.07.283-.42.567-.84 1.083-1.45 0 0 .08-.29.401-.803.692-1.241 1.383-2.483 1.95-3.738 0 0 .018.123.603-.166.154-.625.307-1.25.35-1.874 0 0 .016.11.639-.14.488-.95.976-1.9 1.344-2.857 0 0 .003.12.533-.064.202-.303.405-.605.503-.911 0 0 .02.101.61-.17.16-.62.32-1.239.372-1.856 0 0 .015.106.626-.143.824-1.269 1.649-2.538 2.39-3.822 0 0 .015.084.64-.207l6.732-10.554c-2.674-1.293-4.984-2.41-7.32-3.425 0 0 .102-.025-.198-.587-.953-.435-1.905-.87-3.24-1.896-5.284-2.953-10.567-5.906-16.069-9.158 0 0-.365-.058-.733-.252-.276-.041-.547-.102-.82-.063 0 0 .118-.024-.205-.646-4.57-2.5-9.14-5-13.737-7.399 0 0 .102-.023-.23-.626-1.427-1.08-2.854-2.159-3.93-3.612.177-.294.354-.587.738-1.054 0 0 .081-.258.328-.625.076-.285.153-.57.1-.87 0 0 .027.128.609-.169.497-.944.994-1.889 1.374-2.848 0 0 .02.117.633-.183 1.159-1.919 2.317-3.837 3.38-5.78 0 0 .02.097.596-.185a54 54 0 0 1 1.384-3.462c2.337-3.457 4.674-6.914 7.505-10.52.179-.284.357-.569.447-.889 0 0 .033.09.622-.163.49-.938.979-1.877 1.384-2.837 0 0 .022.084.611-.168.488-.94.975-1.88 1.38-2.834 0 0 .024.08.627-.22.864-1.55 1.729-3.098 2.49-4.685 0 0 .03.104.603-.217.472-.953.944-1.907 1.312-2.872 0 0 .015.104.6-.166.498-.93.995-1.862 1.406-2.809 0 0 .016.087.637-.224 2.518-4.222 5.035-8.444 7.45-12.702 0 0 .03.104.589-.213.487-.934.975-1.869 1.363-2.828 0 0 .023.1.601-.19.503-.925 1.005-1.85 1.409-2.8 0 0 .024.1.598-.198.495-.93.99-1.86 1.389-2.815 0 0 .022.097.595-.205.143-.622.286-1.245 1.077-2.131 1.75-2.88 3.499-5.76 5.884-8.893 1.597-2.353 3.195-4.705 5.07-7.251 0 0 .084-.33.382-.864a882 882 0 0 0 4.002-6.365c1.344-2.107 2.688-4.213 3.941-6.334 0 0 .013.091.6-.176.485-.945.97-1.89 1.374-2.852 0 0 .023.08.67-.237L449.8 29H77.068c-6.83 0-13.66-.092-20.485.08-1.318.032-2.61 1.097-3.803 1.735 0 0-.033-.117-.588.284-.85 1.59-1.7 3.179-3.089 5.165-3.453 5.872-6.907 11.743-10.238 17.639 0 0-.023-.124-.605.204-.916 1.684-1.833 3.367-3.018 5.27 0 0-.05.344-.31.923-.656 1.539-1.31 3.077-2.58 4.977-2.712 5.577-5.423 11.154-8.448 17.393-3.944 11.733-8.496 23.306-11.627 35.252-2.274 8.673-2.856 17.86 3.18 26.587 1.348-2.307 2.543-4.352 3.645-6.418 0 0 .02.094.554-.147.381-.65.763-1.302 1.449-2.347 0 0 .148-.475.022-.498 0 0 .025.126.588-.163.598-.848 1.197-1.696 1.656-2.638 0 0 .036.163.486-.148.156-.327.312-.654.304-1.011 0 0 .03.164.53-.095.157-.338.315-.677.36-1.012 0 0 .02.11.628-.16 1.188-1.572 2.377-3.144 3.43-4.748 0 0 .016.138.535-.094.18-.329.36-.658.42-.988 0 0 .02.117.483-.049.311-.378.622-.756 1.172-1.283 0 0 .144-.242.546-.552.316-.38.632-.76 1.465-1.294.43-.552.86-1.105 1.807-1.9.203-.314.405-.627.504-.937 0 0 .018.102.59-.135.528-.626 1.056-1.251 2.007-1.948.287-.152.418-.39.954-.985.556-.597 1.112-1.193 1.523-1.815 0 0 .027.145.598-.023.432-.364.864-.729 1.888-1.224.513-.608 1.026-1.216 1.453-1.836 0 0 .011.086.539-.063.605-.377 1.21-.755 2.095-1.262 0 0 .164-.261.556-.563.327-.346.653-.691.835-1.059 0 0 .018.145.65-.022.855-.614 1.709-1.228 2.432-1.875 0 0 .044.127.745-.073 18.092-10.206 37.236-15.514 58.299-15.311 51.745.499 103.497.153 155.246.171 17.47.006 34.94.084 52.53.035 0 0-.125.102-.2.626-.299.427-.597.853-.815 1.295 0 0-.022-.078-.585.196-.23.577-.459 1.154-.53 1.753 0 0-.028-.158-.616.197-1.436 2.29-2.872 4.58-4.238 6.868 0 0-.034-.061-.572.241-.217.573-.435 1.146-.522 1.729 0 0-.021-.129-.627.176-1.144 1.933-2.288 3.867-3.347 5.816 0 0-.015-.085-.63.204a548 548 0 0 0-4.365 7.303s-.139.47-.004.488c0 0-.011-.136-.529.078-.182.32-.364.638-.454.954 0 0-.021-.09-.66.216-3.474 5.586-6.946 11.172-10.338 16.773 0 0-.014-.081-.593.17-.232.578-.465 1.157-.537 1.764 0 0-.032-.159-.59.18-.507.937-1.014 1.873-1.377 2.835 0 0-.026-.143-.62.195-1.144 1.93-2.288 3.861-3.334 5.813 0 0-.018-.099-.636.224-2.061 3.29-4.122 6.58-6.412 10.563-2.296 3.395-4.592 6.79-7.52 10.448-.83 1.593-1.659 3.185-2.401 4.792 0 0-.014-.087-.626.202-.867 1.553-1.735 3.106-2.489 4.698 0 0-.033-.115-.49.094-.276.42-.553.839-1.082 1.46 0 0-.073.314-.296.683-.067.28-.137.56-.064.85 0 0-.03-.144-.639.19-1.796 2.943-3.592 5.887-6.01 9.095-2.184 3.544-4.366 7.089-6.41 10.665 0 0-.03-.14-.585.193-.493.93-.985 1.86-1.369 2.817 0 0-.023-.11-.503.092a30 30 0 0 1-1.066 1.463s-.065.246-.347.789c-.712 1.224-1.424 2.448-2.043 3.69 0 0-.017-.091-.605.188-.487.94-.974 1.88-1.376 2.834 0 0-.013-.086-.583.151-.61 1.006-1.219 2.012-2.114 3.19 0 0-.132.308-.652.672-.906 1.662-1.811 3.324-2.635 5 0 0-.012-.081-.59.165-.238.575-.476 1.15-.55 1.754 0 0-.039-.162-.5.062-.116.315-.233.63-.91 1.187-.616 1.018-1.232 2.037-2.148 3.256 0 0-.078.351-.3.706-.065.272-.133.543-.072.83 0 0-.028-.132-.503.058-.291.42-.583.838-1.103 1.45 0 0-.069.292-.288.661-.05.283-.12.561-.085.847 0 0-.024-.123-.501.06-.299.413-.597.826-1.084 1.424 0 0-.064.256-.393.867-5.31-1.038-10.62-2.076-16.73-3.29-3.391-.719-6.782-1.437-10.172-2.043 0 0 .112-.015-.245-.704-6.655-1.935-13.31-3.87-20.266-5.98 0 0-.321.133-.883-.245-4.247-1.832-8.495-3.663-12.97-5.82 0 0-.393-.063-.746-.272-.267-.062-.534-.126-.816-.055 0 0 .137-.03-.17-.596-.946-.48-1.893-.96-2.854-1.35 0 0 .089-.015-.194-.603-.627-.09-1.255-.178-2.36-.75-2.558-2.862-5.115-5.725-7.513-9.388-2.107-6.27-2.087-12.534.341-18.688 1.124-2.849 2.607-5.556 3.815-8.36 0 0 .027.113.535-.124.586-.712 1.172-1.423 2.048-2.289 0 0 .146-.293.537-.57.286-.362.572-.724.763-1.103 0 0 .001.096.524-.096.195-.306.39-.612.488-.917 0 0 .019.096.597-.122.783-.639 1.565-1.278 3.054-2.06 16.45-9.828 34.489-9.583 52.698-8.353 4.75.32 10.45 3.768 13.357-3.827 0 0 .114-.318.408-.714.437-.692.874-1.384 1.613-2.27 0 0 .105-.344.46-.848 1.739-2.656 3.478-5.312 5.527-8.148 0 0 .12-.337.436-.76.314-.625.627-1.249.858-1.881 0 0 .014.081.622-.22.883-1.559 1.765-3.117 2.501-4.709 0 0 .03.148.606-.211 1.176-1.918 2.353-3.836 3.392-5.787 0 0 .029.138.611-.231l4.883-7.54c-15.804-1.851-30.75-3.601-46.402-5.678a253 253 0 0 1-8.174-.668c-6.031.048-12.063.097-18.965.003-5.546.657-11.136 1.065-16.63 2.02-12.465 2.168-24.684 5.2-35.562 11.877 0 0-.015-.113-.604.024-.872.43-1.745.86-2.923 1.348 0 0-.2.237-.738.583-2.323 1.437-4.646 2.873-7.318 4.394 0 0-.195.3-.7.643-1.262 1.02-2.524 2.04-4.408 3.308-6.38 6.463-13.195 12.568-17.972 21-5.501 10.385-8.984 21.402-9.95 33.126-1.333 16.196.806 31.714 9.594 45.734 0 0-.086.016.054.704 1.378 2.202 2.755 4.404 4.26 6.965 0 0 .338.18.634.641a89 89 0 0 1 2.41 3.344s.309.15.6.593c.628.593 1.257 1.187 2.023 2.272.213.254.426.509.892.572 0 0-.216.232-.013.735.488.52.977 1.038 1.597 1.738 0 0 .186.126.507.513.494.452.988.903 1.597 1.409 0 0 .07.105.454.583 1.319 1.014 2.638 2.027 3.975 2.951 0 0-.09.02.072.472.377.297.753.593 1.297 1.201 0 0 .328.136.716.616 4.384 3.026 8.769 6.052 13.38 9.4 0 0 .39.053.927.276.85.418 1.7.837 2.582 1.115 0 0-.14.028.23.622 2.205 1.107 4.321 2.47 6.63 3.281 15.382 5.41 30.805 10.7 46.289 16.52 0 0 .124.479-.084.805-.125.226-.256.448-.74.872 0 0-.103.389-.352.563-.155.137-.27.302-.463.635 0 0-.089.159-.336.514-.194.38-.389.76-.825 1.319 0 0-.12.277-.551.587-.393.748-.786 1.496-1.434 2.41 0 0-.13.276-.564.59-.393.754-.787 1.508-1.43 2.421 0 0-.136.264-.565.577-.398.746-.796 1.492-1.453 2.412 0 0-.125.286-.581.611-.234.66-.467 1.32-1.292 2.23-.505.928-1.009 1.857-1.43 2.803 0 0-.015-.085-.572.15-.61 1.015-1.22 2.03-2.163 3.258 0 0-.081.387-.316.716-.11.25-.18.51-.063.806 0 0-.038-.148-.501.059-.276.425-.55.85-1.058 1.477 0 0-.061.3-.332.844-.718 1.205-1.437 2.41-2.05 3.642 0 0-.021-.107-.6.188-.5.93-1 1.859-1.398 2.812 0 0-.022-.101-.598.192-.509.924-1.017 1.847-1.417 2.799 0 0-.023-.11-.631.232-3.132 4.933-6.263 9.867-9.309 14.815 0 0-.014-.085-.514.113-.14.311-.28.623-.972 1.323-1.625 2.574-3.25 5.148-5.222 7.912 0 0-.117.377-.504.827-1.054 1.678-2.109 3.356-3.443 5.187 0 0-.142.285-.708.664-1.311.102-2.76.618-3.909.235-5.277-1.755-10.47-3.762-15.993-6.017 0 0-.451.024-1.082-.204-11.145-5.01-22.291-10.018-33.758-15.633-1.227-.52-2.454-1.041-3.708-1.467 0 0 .096-.023-.167-.572-1.036-.59-2.072-1.18-3.323-2.092 0 0-.38-.07-.71-.289-.253-.073-.509-.138-.794-.08 0 0 .115-.03-.14-.547-.66-.351-1.322-.702-2.463-1.375-.602-.472-1.203-.945-1.944-1.55 0 0-.159-.107-.527-.466-.722-.455-1.444-.91-2.326-1.653 0 0-.3-.14-.683-.656l-1.846-3.293-2.226 1.045c0 16.344-.066 32.689.127 49.03.015 1.274 1.839 2.526 2.838 3.702 0 0-.086.016.087.5.407.307.814.616 1.402 1.136 0 0 .269.078.815.391 4.333 2.796 8.665 5.591 13.191 8.617 0 0 .295.064.678.272.29.039.573.104.852.081 0 0-.112.023.17.624 1.66.922 3.32 1.844 5.184 3.084 0 0 .366.094.908.393 1.897 1 3.794 2.001 5.708 2.912 0 0-.09.016.223.643 3.581 1.84 7.162 3.68 10.766 5.398 0 0-.122.022.171.586.603.183 1.206.367 1.832.36 0 0-.19.01-.026.708-2.006 3.387-4.013 6.773-5.937 10.172 0 0-.02-.08-.571.174-.624 1.018-1.248 2.037-2.135 3.252 0 0-.08.319-.396.864-3.329 5.23-6.658 10.462-9.905 15.71 0 0-.016-.082-.616.178-1 1.624-2 3.248-3.327 5.302-.056.171-.113.342-.069.52 0 0-.016-.1-.638.195-1.546 2.554-3.092 5.107-4.505 7.701 0 0-.033-.134-.595.244-1.15 1.936-2.299 3.872-3.316 5.828 0 0-.02-.132-.6.164a215 215 0 0 1-2.957 4.35s-.077.225-.389.752c-.718 1.228-1.437 2.456-2.052 3.708 0 0-.021-.105-.606.195-.496.932-.992 1.863-1.384 2.816 0 0-.02-.104-.61.192-.487.937-.975 1.874-1.345 2.83 0 0-.007-.118-.525.093-.186.316-.372.631-.464.943 0 0-.022-.09-.59.146-.14.578-.281 1.156-1.01 1.996-.504.936-1.007 1.872-1.424 2.824 0 0-.015-.086-.635.217-1.918 3.003-3.836 6.006-6.032 9.186 0 0-.111.31-.408.75-.326.62-.653 1.24-.898 1.874 0 0-.017-.08-.631.209-.868 1.563-1.736 3.127-2.479 4.72 0 0-.026-.126-.588.192-.493.929-.987 1.858-1.376 2.812 0 0-.022-.105-.624.222-1.147 1.935-2.294 3.87-3.346 5.82 0 0-.016-.094-.548.143a119 119 0 0 1-1.474 2.504c-.681 1.116-1.363 2.233-1.951 3.363 0 0-.013-.094-.657.235l-2.156 3.818h311.274c10.326 0 20.651-.052 30.976.036 2.369.02 4.296-.173 5.307-3.298.516-1.212 1.032-2.423 1.434-3.655 0 0 .019.115.632-.212 1.82-3.247 3.64-6.493 5.367-9.766 0 0 .024.094.627-.219.814-1.594 1.628-3.188 2.353-4.8 0 0 .016.088.639-.225 8.494-15.576 16.99-31.152 25.39-46.753 0 0 .02.095.654-.27.76-1.769 1.327-3.654 2.312-5.287 4.398-7.284 4.665-14.259-1.344-21.283 0 0-.356-.161-.671-.662-3.575-3.214-3.326 1.241-5.184 2.903-3.975 3.57-7.95 7.14-12.56 10.818-1.878 1.32-3.754 2.641-5.874 4.01 0 0-.184.166-.717.524-1.629 1.02-3.258 2.039-4.799 3.072 0 0-.013-.089-.6.033-.862.424-1.724.847-2.968 1.258 0 0-.269.273-.832.624-2.22 1.037-4.441 2.075-7.334 3.4-3.08 1.205-6.16 2.41-10.052 3.737-.972.14-1.981.157-2.911.438-12.858 3.88-25.887 5.833-39.426 5.703-37.282-.358-74.57-.109-111.855-.132-16.974-.01-33.949-.096-50.9-.552 0 0 .01-.405.53-.676.216-.538.433-1.077.543-1.643 0 0 .024.107.629-.233 2.125-3.609 4.25-7.218 6.294-10.838 0 0 .01.083.634-.163.49-.95.978-1.9 1.366-2.855 0 0 .011.1.628-.159.489-.946.978-1.892 1.365-2.84 0 0 .015.1.477-.046.307-.37.615-.74 1.241-1.287 0 0 .122-.344.497-.805 1.066-1.675 2.132-3.35 3.497-5.21 0 0 .11-.333.407-.731.436-.702.87-1.403 1.592-2.288 0 0 .106-.322.44-.84 1.356-2.234 2.71-4.468 3.939-6.727 0 0 .023.127.598-.177.483-.94.966-1.88 1.355-2.84 0 0 .017.095.603-.176.492-.938.984-1.876 1.388-2.833 0 0 .021.087.606-.189.055-.617.11-1.234.452-2.503 4.301-6.42 8.603-12.841 13.438-19.415.216-.287.432-.573.534-.876 0 0 .025.113.57-.143.596-1.02 1.191-2.04 2.092-3.247 0 0 .113-.34.516-.814 1.958-3.266 3.916-6.532 5.787-9.815 0 0 .016.086.629-.198.956-1.918 1.912-3.837 3.307-6.363 1.024-1.334 2.049-2.667 3.608-4.285 1.208-2.02 2.416-4.04 3.524-6.093 0 0 .03.1.62-.238 1.141-1.928 2.283-3.856 3.332-5.804 0 0 .018.093.632-.221 2.834-4.571 5.668-9.143 8.402-13.75 0 0 .032.102.604-.201.485-.939.97-1.878 1.357-2.834 0 0 .018.096.511-.093.14-.308.28-.616.943-1.23.217-.558.435-1.116.546-1.689 0 0 .02.106.636-.202 1.812-2.926 3.624-5.852 5.349-8.796 0 0 .02.087.638-.22 1.118-1.802 2.414-3.519 3.32-5.421 2.004-4.211 4.73-5.128 9.361-3.82 6.057 1.708 12.43 2.3 19.262 3.847 13.911 3.137 27.69 6.664 40.252 13.671 0 0-.128.024.185.614 1.278.866 2.556 1.732 4.032 3.082.55.401 1.1.802 1.887 1.723.298.221.595.443.907.541 0 0-.122.02.033.597.344.452.688.904 1.11 1.88.278.203.556.406.852.514 0 0-.095.016.062.765.672 1.63 1.421 3.231 2.003 4.892 2.651 7.562-.53 14.307-3.602 21.392-.203.577-.407 1.154-.514 1.759 0 0-.026-.097-.621.216-2.216 2.367-4.433 4.734-6.878 7.222 0 0-.148.213-.576.479-.311.37-.622.742-.846 1.136 0 0-.025-.086-.679.093-1.45.978-2.9 1.956-5.059 3.064-23.897 11.952-49.284 12.193-75.048 9.632-.735-.073-1.56.754-2.252 1.184 0 0-.02-.09-.602.185-.491.938-.982 1.875-1.385 2.83 0 0-.016-.088-.547.131-.367.648-.733 1.297-1.392 2.377-.053.165-.107.33-.057.506 0 0-.017-.102-.604.166-.49.94-.979 1.881-1.384 2.834 0 0-.013-.084-.567.151-.61 1.01-1.22 2.02-2.145 3.215 0 0-.114.346-.42.732-.425.7-.85 1.4-1.57 2.28 0 0-.114.329-.478.809-.967 1.6-1.934 3.199-2.817 4.816 0 0-.018-.084-.633.203-1.144 1.931-2.287 3.863-3.35 5.81 0 0-.019-.08-.6.182-.502.929-1.003 1.858-1.42 2.8 0 0-.014-.083-.594.174-.216.588-.433 1.177-.497 1.79 0 0-.028-.152-.626.204l-5.757 8.925c12.951 1.088 24.984 2.104 37.017 3.11 29.765 2.49 59.215.614 88.079-7.267 12.59-3.437 24.883-7.945 35.504-15.787 0 0 .014.112.65-.049.836-.63 1.672-1.26 2.405-1.912 0 0 .027.102.677-.05 1.013-1.024 2.026-2.049 3.324-3.722 5.661-5.425 11.322-10.85 17.617-16.48.85-1.243 1.7-2.486 2.428-3.759 0 0 .026.123.615-.227.849-1.574 1.698-3.15 2.41-4.76 0 0 .03.139.62-.258 5.414-10.148 7.848-21.124 8.815-32.462 1.496-17.565-1.439-34.224-10.715-50.172a187 187 0 0 1-3.16-4.973s-.316-.168-.582-.565c-.34-.306-.68-.613-1.043-.813 0 0 .106-.025-.024-.555a34 34 0 0 1-1.455-2.213c-.17-.047-.34-.093-.587-.15 0 0-.063-.122-.316-.782a6 6 0 0 0-.726-.224"/>
  <path fill="#00193C" d="M39.031 115.231c.025.324-.106.562-.963.761-1.05.744-1.53 1.44-2.009 2.138 0 0-.018-.102-.234.005-.413.429-.61.75-.806 1.072-.43.553-.86 1.106-1.887 1.745-.821.563-1.045 1.04-1.269 1.517 0 0-.144.242-.56.18-.684.461-.951.986-1.218 1.511 0 0-.021-.117-.232-.009-.383.443-.555.777-.728 1.112 0 0-.016-.138-.315-.156-1.446 1.666-2.592 3.35-3.738 5.035 0 0-.02-.11-.23.008-.357.463-.504.808-.65 1.154 0 0-.031-.164-.242-.06-.322.476-.432.847-.543 1.218 0 0-.036-.163-.336-.134-.84.985-1.38 1.941-1.92 2.898 0 0-.024-.126-.223-.062-.427.318-.655.572-1.157 1.001-.399.79-.524 1.406-.65 2.021 0 0-.02-.094-.319-.094-1.265.549-2.231 1.098-4.179 2.204-.871-3.706-2.765-7.17-2.202-10.174 2.177-11.626 4.989-23.142 7.88-34.62 1.159-4.603 3.133-9.002 5.041-13.648 2.759-5.385 5.213-10.616 7.957-16.046.824-2.162 1.358-4.124 1.892-6.086 0 0 .051-.343.522-.303 1.357-1.852 2.243-3.746 3.13-5.639 0 0 .022.124.307.046 4.113-5.999 7.94-11.919 11.955-18.152.672-1.866 1.157-3.42 1.642-4.975 0 0 .033.117.465.17 83.35.072 166.27.093 249.188.107 46.455.008 92.91-.02 139.365.095 1.769.004 3.535 1.332 5.302 2.043 0 0-.023-.08-.352-.05-.763 1.05-1.197 2.07-1.632 3.09 0 0-.013-.092-.32-.081-1.792 2.31-3.276 4.609-5.075 7.055-1.164 2.153-2.012 4.16-2.86 6.167 0 0-.082.33-.545.277-2.056 2.483-3.65 5.02-5.244 7.556-1.75 2.88-3.499 5.76-5.863 8.929-.756.907-.895 1.526-1.035 2.145 0 0-.022-.097-.353-.087-.765 1.04-1.198 2.071-1.632 3.102 0 0-.024-.1-.354-.092-.772 1.033-1.215 2.058-1.657 3.084 0 0-.023-.1-.355-.089-.751 1.053-1.171 2.093-1.59 3.133 0 0-.03-.104-.34-.113-2.793 4.335-5.277 8.678-7.76 13.022 0 0-.017-.087-.345-.07-.774 1.032-1.218 2.047-1.663 3.062 0 0-.015-.104-.303 0-.724 1.1-1.16 2.095-1.596 3.09 0 0-.03-.105-.352-.11-1.139 1.659-1.955 3.325-2.772 4.99 0 0-.025-.08-.352-.056-.765 1.037-1.203 2.05-1.641 3.062 0 0-.022-.084-.35-.058-.767 1.039-1.206 2.05-1.645 3.063 0 0-.033-.089-.241-.1-.383.34-.558.695-.733 1.049-2.337 3.457-4.674 6.914-7.518 10.756-.821 1.376-1.137 2.367-1.452 3.359 0 0-.022-.096-.338-.093-1.436 2.028-2.556 4.052-3.676 6.076 0 0-.02-.117-.304-.02-.746 1.08-1.21 2.064-1.672 3.048 0 0-.028-.128-.217-.007-.18.453-.168.785-.157 1.116 0 0-.081.258-.477.234-.584.465-.774.954-1.02 1.816 1.61 1.408 3.275 2.442 4.94 3.477 0 0-.102.023-.103.335 4.687 2.778 9.374 5.243 14.061 7.709 0 0-.118.024.007.203.438.146.75.112 1.063.078 0 0 .365.058.326.53 5.119 3.42 10.277 6.365 15.592 9.633 1.457.718 2.756 1.115 4.056 1.511 0 0-.103.025-.108.326 1.485 1.647 2.975 2.991 4.226 4.12l-4.257 9.85s-.016-.085-.33-.07c-1.106 1.363-1.896 2.71-2.686 4.056 0 0-.015-.106-.254.044-.4.76-.56 1.369-.722 1.977 0 0-.02-.101-.233-.008a5.3 5.3 0 0 0-.821 1.002s-.003-.12-.268-.004c-.744 1.074-1.223 2.032-1.702 2.99 0 0-.016-.11-.254.046-.39.773-.544 1.39-.697 2.008 0 0-.017-.123-.308-.026-.854 1.45-1.417 2.802-1.98 4.155 0 0-.081.288-.516.276-.66.549-.886 1.109-1.112 1.67 0 0-.028-.137-.31-.062-2.189 3.44-4.096 6.804-6.004 10.168 0 0-.11.33-.586.26-1.056 1.128-1.635 2.325-2.215 3.522 0 0-.024-.086-.402-.117-1.22.021-2.063.073-2.906.124 0 0 .135-.027.043-.244a5.7 5.7 0 0 0-1.05-.868c-.545-.435-1.09-.871-1.72-1.907-.563-.838-1.043-1.076-1.522-1.314 0 0-.29-.178-.184-.526s-.238-.687-.238-.687l-.357.329s-.4-.112-.337-.605c-.563-.806-1.189-1.12-1.815-1.434 0 0-.307-.142-.246-.58-.452-.71-.966-.98-1.48-1.25 0 0 .098-.018.001-.231-.406-.407-.716-.599-1.025-.791 0 0 .126-.009.014-.213-.447-.37-.782-.536-1.117-.702 0 0 .149-.018.096-.193-.153-.546-.393-.748-.908-1.104-1.119-.794-2.106-1.265-3.092-1.736 0 0 .091-.015.067-.34-.768-.509-1.512-.691-2.256-.873 0 0-.334-.116-.27-.6-1.13-1.055-2.325-1.627-3.52-2.2 0 0 .084-.014.066-.337-2.4-1.402-4.783-2.481-7.166-3.56 0 0 .137-.027.052-.313-3.73-1.767-7.375-3.247-11.02-4.727 0 0 .128-.025.036-.307-6.647-5.387-11.359-2.929-12.735 6.313 0 0-.013-.087-.345-.064-.753 1.057-1.173 2.092-1.593 3.127 0 0-.024-.099-.334-.1-2.123 3.004-3.936 6.01-5.748 9.015 0 0-.012-.099-.295.012-2.121 3.024-3.96 5.938-6.06 9.043-.352.812-.442 1.434-.532 2.055 0 0-.027-.134-.31-.05-.76 1.067-1.238 2.048-1.715 3.03 0 0-.024-.102-.332-.105-3.76 5.7-7.213 11.402-10.666 17.104 0 0-.024-.121-.243-.037-.43.59-.64 1.095-.852 1.6-3.636 5.196-7.272 10.392-11.355 16.074-3.82 3.267-3.042 5.085.871 6.181 1.118.313 2.249.592 3.343.973 18.77 6.53 37.53 13.091 56.313 19.581 1.28.443 2.735.38 4.108.553 0 0 .334.075.319.521.539.479 1.094.51 1.649.543 0 0 .279.077.235.516 3.854 3.009 7.752 5.579 11.65 8.148 0 0-.098.02-.105.347 1.701 1.47 3.41 2.613 5.118 3.757.553.43 1.106.862 1.749 1.883.551.812 1.014 1.032 1.476 1.253.15.08.3.16.318.593-.133.352.166.618.166.618l.155-.373c.222.079.443.158.606.672a.89.89 0 0 0 .243.719l.208-.362c.17.047.34.093.418.689.498 1.097 1.088 1.646 1.678 2.194 0 0-.106.025-.114.301.434.495.876.714 1.317.934 0 0 .317.168.207.643 1.037 2.425 2.183 4.374 3.369 6.688 10.452 22.315 11.868 44.93 5.035 68.15-1.248 4.238-2.549 8.46-3.825 12.69 0 0-.03-.137-.327-.06-1.099 1.73-1.9 3.38-2.702 5.032 0 0-.026-.123-.287-.06-1.108 1.343-1.954 2.622-2.8 3.9-5.662 5.426-11.323 10.85-17.472 16.638-1.488 1.412-2.487 2.462-3.486 3.512 0 0-.027-.102-.327-.13-1.114.683-1.927 1.392-2.74 2.1 0 0-.015-.11-.344-.148-1.132.138-2.06.112-2.719.52-12.304 7.603-25.736 12.475-39.774 15.378-12.287 2.541-24.726 4.698-37.206 5.853-10.335.956-20.835.474-31.246.137-11.592-.374-23.172-1.225-34.745-2.041-3.528-.25-7.015-1.068-10.588-1.637l2.362-7.51s.028.151.27.033c.44-.721.638-1.325.835-1.928 0 0 .013.084.342.067.777-1.027 1.225-2.037 1.673-3.047 0 0 .02.08.339.061 1.428-2.038 2.536-4.058 3.645-6.077 0 0 .018.084.34.07 1.168-1.771 2.014-3.527 2.86-5.282 0 0 .114-.328.604-.267.788-.87 1.087-1.798 1.385-2.728 0 0 .114-.346.6-.279 1.062-1.127 1.637-2.322 2.213-3.517 0 0 .013.084.34.059.767-1.042 1.205-2.06 1.644-3.077 0 0 .017.102.216.032.403-.329.607-.588 1.088-1.02.415-.786.554-1.399.693-2.012 0 0 .016.087.346.069.766-1.041 1.2-2.064 1.636-3.087 0 0 .021.091.42.133 12.085.383 23.77.836 35.458 1.035 12.447.213 24.213-3.229 35.756-7.407 2.696-.977 5.007-3.02 7.848-4.603 1.42-1.062 2.486-2.094 3.552-3.126 0 0 .025.086.309.076.52-.471.755-.931.99-1.392 0 0 .148-.213.583-.073 4.442-.939 6.546-3.626 7.038-7.675 0 0 .026.097.233.043.449-.288.69-.522 1.243-.928 5.37-7.594 5.82-15.722 3.661-24.1-.364-1.414-2.07-2.482-3.155-3.71 0 0 .095-.016.111-.285-.29-.775-.597-1.28-1.033-2.025a4 4 0 0 0-1.1-.677s.122-.02.026-.237a5.5 5.5 0 0 0-1.049-.844c-.55-.401-1.1-.802-1.75-1.82-1.483-1.43-2.863-2.243-4.244-3.055 0 0 .128-.024.044-.308-11.463-9.15-25.03-11.781-39.029-14.144a689 689 0 0 0-24.97-5.258c-.858-.165-2.363.086-2.704.658-2.145 3.605-4.045 7.355-6.027 11.058 0 0-.02-.087-.332-.079-2.092 3.038-3.873 6.067-5.653 9.096 0 0-.019-.106-.229-.033-.436.34-.662.608-1.155 1.05-.383.777-.5 1.381-.617 1.985 0 0-.018-.096-.347-.076-.752 1.052-1.176 2.085-1.6 3.117 0 0-.032-.101-.341-.105-3.108 4.686-5.908 9.377-8.707 14.067 0 0-.018-.093-.336-.087-1.413 2.05-2.509 4.093-3.605 6.137 0 0-.03-.101-.335-.11-1.455 2.123-2.604 4.255-3.753 6.386-1.024 1.334-2.049 2.667-3.602 4.378-1.483 2.342-2.437 4.306-3.39 6.27 0 0-.017-.086-.328-.075-2.167 3.434-4.023 6.856-5.879 10.279 0 0-.113.339-.6.275-1.042 1.146-1.596 2.357-2.15 3.567 0 0-.025-.113-.237-.033-.426.37-.64.66-.855.95a6981 6981 0 0 1-13.285 19.777c-.472 1.1-.564 1.681-.657 2.263 0 0-.021-.087-.35-.068-.768 1.041-1.207 2.063-1.645 3.085 0 0-.017-.095-.348-.076-.753 1.053-1.176 2.09-1.6 3.125 0 0-.022-.127-.308-.043-1.52 2.443-2.753 4.802-3.987 7.16 0 0-.106.323-.593.268-.792.877-1.096 1.81-1.401 2.741 0 0-.11.334-.582.266-1.448 1.867-2.424 3.803-3.4 5.738 0 0-.123.344-.569.297-.716.462-.987.971-1.257 1.48 0 0-.015-.1-.29.012-.752 1.07-1.23 2.03-1.707 2.988 0 0-.011-.1-.288.008-.756 1.07-1.235 2.03-1.713 2.992 0 0-.01-.083-.322-.057-2.404 3.735-4.496 7.443-6.587 11.152 0 0-.024-.107-.282-.116-.44.636-.622 1.28-.804 1.923 0 0-.01.405.038 1.017 2.028 1.052 4.008 1.873 5.99 1.876 52.822.07 105.646.138 158.469-.033 7.582-.025 15.266-.708 22.709-2.117 6.374-1.206 12.47-3.889 18.688-5.918 3.08-1.205 6.159-2.409 9.976-3.736 2.878-1.291 5.019-2.46 7.16-3.629 0 0 .27-.273.792-.037 1.36-.381 2.195-.998 3.032-1.616 0 0 .013.09.353.122 1.89-1.133 3.441-2.298 4.992-3.463 0 0 .184-.166.632.012 2.319-1.314 4.19-2.805 6.061-4.297 3.975-3.57 7.95-7.14 12.468-10.98a265 265 0 0 1 4.956-2.131s.356.161.199.666c.05 1.442-.023 2.596.509 3.281 3.47 4.469 3.242 8.951.885 13.878-1.379 2.884-1.92 6.168-2.839 9.271 0 0-.02-.095-.337-.09-.61.14-1.05.195-1.177.424-6.931 12.565-13.888 25.118-20.705 37.746-1.526 2.826-2.555 5.92-3.814 8.891 0 0-.016-.089-.344-.074-1.094 1.71-1.86 3.405-2.628 5.099 0 0-.024-.094-.336-.092-2.098 3.365-3.883 6.728-5.668 10.09 0 0-.02-.114-.295-.03-1.137 1.326-1.999 2.567-3.162 4.057-2.442.76-4.583 1.715-6.724 1.716-109.395.073-218.79.064-328.185.062-1.665 0-3.471.38-4.95-.148-1.173-.418-1.944-1.959-2.894-3 0 0 .013.093.316.084 1.086-1.308 1.87-2.607 2.94-4.072.429-.785.571-1.404.714-2.023 0 0 .016.095.31.002 1.415-2.08 2.534-4.068 3.654-6.055 0 0 .022.105.35.095.757-1.047 1.183-2.084 1.61-3.12 0 0 .026.127.32.045 1.13-1.697 1.965-3.313 2.8-4.929 0 0 .016.08.346.05.507-.782.686-1.533.865-2.284 0 0 .111-.31.566-.238 2.37-3.14 4.283-6.35 6.197-9.56 0 0 .015.086.308.09.798-.623 1.303-1.252 2.077-2.107.39-1.135.51-2.044.632-2.953 0 0 .022.09.239-.009.4-.418.583-.737.765-1.055 0 0 .007.119.324.099.75-1.05 1.185-2.078 1.619-3.107 0 0 .019.104.345.092.765-1.042 1.204-2.073 1.643-3.104 0 0 .021.105.343.1.895-1.413 1.469-2.822 2.042-4.23 0 0 .077-.226.511-.185 1.323-1.535 2.213-3.11 3.102-4.686 0 0 .02.132.309.045 1.388-2.097 2.489-4.108 3.59-6.12 0 0 .033.135.322.067 1.805-2.688 3.321-5.308 4.838-7.927 0 0 .016.099.204.028.532-.21.71-.464 1.085-.887 1.151-1.743 1.937-3.433 2.723-5.124 0 0 .016.082.327.064 3.47-4.37 6.693-8.676 9.72-13.116.504-.74.148-2.066.19-3.121 0 0 .08-.319.552-.273 1.052-1.154 1.633-2.353 2.214-3.553 0 0 .02.08.332.065 2.156-2.41 4.174-4.698 5.746-7.26.508-.828-.157-2.376-.285-3.594 0 0 .19-.01.053-.227-.754-.381-1.371-.544-1.988-.707 0 0 .122-.022.035-.31-3.721-2.103-7.356-3.92-10.991-5.737 0 0 .09-.016.074-.337-2.088-1.178-4.161-2.034-6.235-2.89 0 0-.366-.094-.303-.576-1.801-1.389-3.665-2.296-5.53-3.203 0 0 .113-.023-.017-.207-.456-.157-.78-.13-1.105-.105 0 0-.295-.064-.258-.507-4.567-3.125-9.17-5.806-13.774-8.487 0 0-.269-.078-.257-.495-.52-.68-1.054-.941-1.587-1.203 0 0 .086-.016.076-.402-.307-1.504-.86-2.62-.864-3.739-.055-13.954-.096-27.91.077-41.862.016-1.337 1.49-2.655 2.288-3.981 0 0 .299.14.223.624.873.831 1.822 1.18 2.77 1.528 0 0 .16.107.107.498.788 1.011 1.627 1.632 2.657 2.518.813.354 1.435.444 2.057.534 0 0-.115.03-.008.22.41.163.713.135 1.016.108 0 0 .38.07.344.573 1.183 1.048 2.403 1.593 3.623 2.138 0 0-.096.023-.097.335.932.83 1.865 1.35 3.01 2.137 10.45 5.122 20.666 10.026 30.958 14.762 1.151.53 2.743.102 4.13.117 0 0 .451-.024.44.451a185 185 0 0 0 17.863 7.834c.443.167 1.724-1.886 2.616-2.906 0 0 .142-.285.604-.205 1.431-1.852 2.4-3.785 3.368-5.717 0 0 .117-.377.594-.3 2.097-2.429 3.717-4.935 5.601-7.597.382-.74.499-1.327.616-1.913 0 0 .014.085.324.076 3.41-5.055 6.508-10.101 9.607-15.148 0 0 .023.11.349.103.773-1.033 1.22-2.06 1.667-3.085 0 0 .022.101.35.093.768-1.039 1.208-2.069 1.649-3.099 0 0 .021.107.341.102.88-1.396 1.44-2.788 2-4.18 0 0 .062-.3.498-.295.652-.559.869-1.124 1.085-1.69 0 0 .038.148.222.045.239-.212.352-.33.334-.425-.038-.209-.143-.405-.22-.607 0 0 .08-.387.58-.337 1.074-1.148 1.647-2.345 2.22-3.543 0 0 .017.085.308.085.793-.623 1.295-1.246 2.112-2.055.468-1.225.62-2.264.774-3.303 0 0 .125-.286.602-.213.787-.884 1.096-1.84 1.405-2.798 0 0 .135-.264.61-.193.78-.888 1.085-1.847 1.39-2.806 0 0 .13-.275.603-.202.78-.882 1.086-1.838 1.393-2.794 0 0 .119-.277.563-.24.505-.545.567-1.128.628-1.711 0 0 .09-.16.413-.132.409-.062.569-.159.562-.241-.017-.202-.111-.397-.174-.595 0 0 .102-.39.475-.315.44-.374.509-.823.576-1.272 0 0-.124-.48-.192-1.091-1.609-1.424-3.074-2.46-4.704-3.012-12.044-4.085-24.136-8.03-36.18-12.116-4.16-1.411-8.228-3.095-12.338-4.655 0 0 .14-.028.053-.318-1.068-.544-2.05-.796-3.031-1.048 0 0-.39-.053-.345-.527-3.836-3.553-7.687-6.67-11.639-9.652-.422-.32-1.435.145-2.174.246 0 0-.328-.136-.274-.584-.468-.7-.99-.953-1.512-1.206 0 0 .089-.019.101-.351-1.449-1.254-2.91-2.175-4.37-3.097 0 0-.071-.105-.03-.472-.625-.72-1.292-1.075-1.959-1.43 0 0-.186-.125-.075-.562-.564-.893-1.237-1.348-1.911-1.804 0 0 .216-.232.241-.462.077-.463.13-.697.031-1.23-1.187-.809-2.225-1.318-3.262-1.827 0 0-.31-.15-.165-.622-.854-1.426-1.852-2.38-2.85-3.333 0 0-.337-.18-.175-.67-1.413-2.714-2.988-4.938-4.563-7.163 0 0 .086-.016.125-.375-.18-1.479-.162-2.717-.652-3.7-9.378-18.81-9.4-38.304-4.091-58.095 1.527-5.695 3.833-11.18 5.782-16.761 4.055-8.377 10.87-14.482 17.94-21.051 1.867-1.252 3.045-2.398 4.223-3.545 0 0 .195-.3.686-.117 2.782-1.518 5.074-3.22 7.365-4.923 0 0 .2-.237.655-.051 1.322-.433 2.19-1.052 3.057-1.67 0 0 .015.112.356.148 2.236-.523 4.222-.876 6.012-1.672 14.875-6.62 30.485-9.845 47.167-10.31 23.588-1.535 46.193 2.182 68.654 6.112l-1.906 6.189s-.029-.138-.316-.065c-1.418 2.073-2.55 4.073-3.682 6.073 0 0-.029-.148-.318-.07-1.132 1.696-1.976 3.314-2.82 4.932 0 0-.014-.081-.342-.053-.5.778-.674 1.527-.846 2.276 0 0-.12.337-.586.26-2.116 2.858-3.766 5.794-5.417 8.729 0 0-.104.344-.592.279-.798.867-1.108 1.799-1.419 2.73 0 0-.114.32-.59.251-2.641 1.044-5.057 3.433-6.929 3.064-13.501-2.663-26.954-2.14-40.254.506-7.13 1.418-14.532 3.125-20.328 8.83-.8.736-1.25 1.431-1.7 2.126 0 0-.019-.096-.232 0-.409.4-.603.707-.798 1.013 0 0 0-.096-.277-.086-.477.464-.677.917-.878 1.37 0 0-.146.293-.61.206-1.007.813-1.55 1.713-2.092 2.613 0 0-.027-.114-.337-.12-4.91 4.488-6.68 10.31-6.685 16.375-.003 3.826 1.727 7.654 2.68 11.48 2.557 2.863 5.114 5.726 8.097 9.082 1.023.61 1.62.727 2.218.844 0 0-.089.015-.068.347 1.06.75 2.1 1.167 3.14 1.584 0 0-.137.03-.02.21.429.149.74.116 1.052.084 0 0 .393.062.342.548 3.886 3.812 8.088 6.448 13.583 5.713 0 0 .32-.133.355.297 6.885 2.366 13.737 4.302 20.589 6.239 0 0-.112.015.065.286 3.359 1.132 6.54 1.992 9.995 3.114 4.433 1.338 8.557 2.63 12.777 3.37 1.395.245 4.607 2.199 4.282-2.033 0 0 .064-.256.473-.244.656-.531.904-1.075 1.152-1.62 0 0 .024.124.21 0 .232-.236.332-.355.316-.456-.034-.217-.128-.425-.197-.636 0 0 .068-.291.499-.286.67-.545.908-1.096 1.147-1.646 0 0 .028.131.21.013.232-.228.335-.346.318-.445-.036-.212-.133-.414-.206-.62 0 0 .078-.352.528-.298 1.079-.747 1.707-1.549 2.592-2.569.33-.862.404-1.507.477-2.152 0 0 .039.162.28.056.457-.703.672-1.299.887-1.894 0 0 .012.082.335.06 1.16-1.794 1.996-3.569 2.832-5.343 0 0 .132-.307.605-.229 1.052-1.116 1.632-2.311 2.211-3.506 0 0 .013.086.343.062.764-1.045 1.199-2.067 1.634-3.09 0 0 .017.093.342.084.883-1.415 1.441-2.82 2-4.225 0 0 .065-.246.476-.243.652-.554.894-1.11 1.135-1.667 0 0 .023.11.353.1.751-1.052 1.173-2.096 1.594-3.14 0 0 .03.14.31.066 2.823-3.648 5.364-7.223 8.172-11.006 1.702-3.144 3.14-6.08 4.577-9.015 0 0 .03.143.21.02.232-.237.34-.36.322-.46-.038-.217-.14-.424-.215-.635 0 0 .073-.315.517-.302.661-.552.878-1.116 1.095-1.681 0 0 .033.115.351.123 1.14-1.659 1.962-3.327 2.783-4.995 0 0 .014.087.339.072 1.12-1.69 1.914-3.366 2.709-5.04 2.295-3.396 4.591-6.79 7.349-10.56 2.497-3.754 4.533-7.132 6.568-10.51 0 0 .018.098.334.093 1.414-2.052 2.513-4.1 3.612-6.146 0 0 .026.143.307.054.74-1.087 1.197-2.086 1.654-3.085 0 0 .032.16.273.046.452-.71.663-1.306.875-1.902 0 0 .014.081.334.073 3.312-4.025 6.432-7.957 9.224-12.11.915-1.36.98-3.29 1.433-4.961 0 0 .021.09.24-.01.396-.423.574-.745.753-1.068 0 0 .01.136.208.063.446-.324.696-.576 1.246-.993 1.381-2.449 2.461-4.732 3.541-7.014 0 0 .015.085.334.07 1.424-2.044 2.529-4.075 3.634-6.106 0 0 .021.129.256 0 .432-.72.629-1.31.825-1.902 0 0 .034.061.351.044 1.715-2.413 3.112-4.81 4.51-7.206 0 0 .027.158.26.037.442-.716.65-1.311.86-1.906 0 0 .022.078.289.074.385-.608.504-1.211.623-1.815 0 0 .125-.102.026-.458-2.075-.796-4.05-1.618-6.025-1.62-66.99-.066-133.982.108-200.972-.175-15.408-.065-30.084 2.568-44.148 8.44-5.478 2.286-10.372 5.97-15.532 9.016 0 0-.044-.127-.336-.179-1.118.663-1.945 1.379-2.772 2.094 0 0-.018-.145-.282-.151-.498.451-.73.909-.963 1.367 0 0-.164.261-.61.114-1.023.42-1.6.99-2.177 1.558 0 0-.011-.086-.282-.108-.788.278-1.306.579-2.1 1.031-.698.84-1.12 1.53-1.54 2.22 0 0-.028-.146-.322-.157-.793.691-1.291 1.394-1.79 2.097"/>
  <path fill="#00020A" d="M447.39 32.955c-2.09-.552-3.856-1.88-5.625-1.884-46.455-.115-92.91-.087-139.365-.095-82.919-.014-165.838-.035-249.244-.131.817-.667 2.109-1.732 3.427-1.765 6.824-.171 13.656-.08 20.485-.08H449.8c-.777 1.414-1.432 2.605-2.41 3.955"/>
  <path fill="#01020A" d="M52.555 105.245c4.81-2.947 9.704-6.63 15.182-8.917 14.064-5.871 28.74-8.504 44.148-8.439 66.99.283 133.981.109 200.972.175 1.976.002 3.95.824 5.964 1.667-17.43.358-34.9.28-52.37.274-51.749-.018-103.501.328-155.246-.171-21.063-.203-40.207 5.105-58.65 15.411"/>
  <path fill="#01030D" d="M369.557 449.918c-5.812 1.968-11.907 4.65-18.281 5.857-7.443 1.409-15.127 2.092-22.71 2.117-52.822.17-105.646.103-158.469.033-1.98-.003-3.96-.824-6.001-1.674 16.914-.358 33.889-.272 50.863-.262 37.286.023 74.573-.226 111.855.132 13.54.13 26.568-1.823 39.426-5.703.93-.28 1.939-.298 3.317-.5"/>
  <path fill="#010101" d="M37.6 512.013c1.27.877 2.042 2.418 3.214 2.836 1.48.528 3.286.148 4.95.148 109.396.002 218.79.01 328.186-.062 2.141 0 4.282-.956 6.997-1.7.757-.227.94-.218 1.122-.21-.402 2.833-2.33 3.026-4.698 3.006-10.325-.088-20.65-.036-30.976-.036H35.121c.816-1.446 1.486-2.632 2.478-3.982"/>
  <path fill="#070910" d="M216.517 423.93c-.433 2.148-1.165 4.475-2.063 7.332 3.573.569 7.06 1.388 10.588 1.637 11.573.816 23.153 1.667 34.745 2.041 10.41.337 20.911.82 31.246-.137 12.48-1.155 24.919-3.312 37.206-5.853 14.038-2.903 27.47-7.775 39.774-15.378.66-.408 1.587-.382 2.775-.512-10.348 7.87-22.641 12.379-35.231 15.816-28.864 7.88-58.314 9.757-88.08 7.267-12.032-1.006-24.065-2.022-37.016-3.11 2.168-3.361 3.963-6.143 6.056-9.103"/>
  <path fill="#060912" d="M401.512 382.07c.981-4.031 2.282-8.254 3.53-12.492 6.833-23.22 5.417-45.835-5.013-68.449-.005-.861.007-1.06.02-1.259 9.134 15.316 12.07 31.975 10.573 49.54-.967 11.338-3.401 22.314-9.11 32.66"/>
  <path fill="#070A13" d="M89.638 162.182c-1.588 5.554-3.894 11.04-5.421 16.734-5.308 19.791-5.287 39.285 4.09 58.094.491.984.473 2.222.645 3.744-8.82-13.704-10.958-29.222-9.625-45.418.966-11.724 4.449-22.74 10.31-33.154"/>
  <path fill="#090B13" d="M317.014 381.011c-2.488 1.552-4.799 3.595-7.495 4.572-11.543 4.178-23.31 7.62-35.756 7.407-11.689-.2-23.373-.652-35.504-1.046.34-.461 1.164-1.288 1.899-1.215 25.764 2.56 51.151 2.32 75.677-9.681.813-.046.996-.041 1.18-.037"/>
  <path fill="#05070E" d="M244.5 131.08c.275-1.657.842-3.498 1.614-6.004-22.461-3.93-45.066-7.647-68.656-6.412-.457-.708-.457-1.108-.456-1.509 6.032-.048 12.064-.097 18.862.186 3.216.442 5.666.553 8.115.664l45.694 5.35c-2.082 3.216-3.482 5.378-5.174 7.725"/>
  <path fill="#080A12" d="M369.075 270.982c-1.103-.01-2.558.052-3.838-.39-18.784-6.49-37.543-13.051-56.313-19.582-1.094-.38-2.225-.66-3.343-.973-3.913-1.096-4.69-2.914-1.022-5.857.04.892-.217 1.945-.594 3.489 21.58 7.56 44.553 11.675 65.11 23.313M25.037 82.008C23.434 86.5 21.46 90.9 20.3 95.503c-2.89 11.477-5.702 22.993-7.88 34.619-.562 3.004 1.332 6.468 2.203 10.174 1.948-1.106 2.914-1.655 4.226-2.194-.849 2.056-2.044 4.101-3.392 6.408-6.036-8.726-5.454-17.914-3.18-26.587 3.13-11.946 7.683-23.52 11.989-35.581.361-.33.771-.334.771-.334"/>
  <path fill="#05070E" d="M160.119 168.965c5.446-5.663 12.848-7.37 19.978-8.788 13.3-2.645 26.753-3.169 40.254-.506 1.872.37 4.288-2.02 6.785-2.975-2.288 7.574-7.986 4.127-12.737 3.806-18.21-1.23-36.248-1.475-53.27 8.418-.572.065-1.01.045-1.01.045"/>
  <path fill="#080B15" d="M64.228 332.85c-.606 1.584-2.08 2.902-2.096 4.239-.173 13.952-.132 27.908-.077 41.862.005 1.119.557 2.235.856 3.782-.981-.833-2.805-2.085-2.82-3.359-.193-16.341-.127-32.686-.127-49.03l2.226-1.045c.615 1.098 1.23 2.195 2.038 3.55"/>
  <path fill="#080A12" d="M126.93 277.495c3.924 1.263 7.992 2.947 12.152 4.358 12.044 4.086 24.136 8.031 36.18 12.116 1.63.552 3.095 1.588 4.667 2.767-15.38-4.963-30.802-10.254-46.184-15.663-2.309-.812-4.425-2.174-6.815-3.578"/>
  <path fill="#070912" d="M176.567 117.084c.434.472.434.872.435 1.573-16.224.772-31.834 3.997-46.71 10.617-1.789.796-3.775 1.15-6.067 1.664 10.593-6.706 22.812-9.737 35.277-11.905 5.494-.955 11.084-1.363 17.065-1.949"/>
  <path fill="#0A0D17" d="M393.418 494.012c.948-2.814 1.977-5.908 3.503-8.734 6.817-12.628 13.774-25.18 20.705-37.746.126-.229.567-.284 1.224-.412-8.13 15.584-16.626 31.16-25.432 46.892"/>
  <path fill="#0B0D13" d="M284.037 316.982c13.76 2.08 27.326 4.712 38.778 13.926-12.467-6.787-26.246-10.314-40.126-13.685.47-.236.91-.238 1.348-.24"/>
  <path fill="#0B0D15" d="M114.895 359.086c-1.072.099-2.664.527-3.815-.003-10.292-4.736-20.507-9.64-30.65-14.793.301-.313.507-.329.712-.345a17664 17664 0 0 0 33.753 15.141"/>
  <path fill="#090B14" d="M283.797 316.7c-.198.285-.637.287-1.405.286-6.566-1.076-12.939-1.668-18.996-3.377-4.632-1.307-7.357-.39-9.362 3.82-.905 1.903-2.2 3.62-3.628 5.575 1.672-3.549 3.572-7.3 5.717-10.904.34-.572 1.846-.823 2.704-.658 8.257 1.59 16.49 3.3 24.97 5.258"/>
  <path fill="#070910" d="M148.92 203.584c-1.033-3.426-2.763-7.254-2.76-11.08.005-6.065 1.774-11.887 6.741-16.358-.954 2.794-2.437 5.501-3.56 8.35-2.429 6.154-2.45 12.418-.422 19.088"/>
  <path fill="#0A0D17" d="M419.457 447.016c.602-2.921 1.143-6.205 2.522-9.089 2.357-4.927 2.584-9.41-.885-13.878-.532-.685-.46-1.839-.439-3.099 6.096 6.337 5.829 13.312 1.431 20.596-.985 1.633-1.552 3.518-2.629 5.47"/>
  <path fill="#04060E" d="M331.9 340.47c1.007.853 2.712 1.921 3.076 3.335 2.158 8.378 1.708 16.506-3.67 23.8-.334-.328-.345-.528-.357-.727 2.501-6.835 5.683-13.58 3.032-21.142-.582-1.66-1.33-3.263-2.081-5.266"/>
  <path fill="#0B0D15" d="M135.846 364.768c-.609.831-1.89 2.884-2.333 2.717-6.026-2.273-11.935-4.853-17.714-7.664 5.384 1.61 10.578 3.617 15.855 5.372 1.15.383 2.598-.133 4.192-.425"/>
  <path fill="#05070F" d="M300.606 118.027c-.134 1.517-.198 3.449-1.113 4.809-2.792 4.152-5.912 8.084-9.265 12.102 3.113-5.586 6.585-11.172 10.378-16.911"/>
  <path fill="#080B14" d="M317.462 226.05c3.151-5.533 6.604-11.236 10.415-16.92-3.133 5.595-6.624 11.174-10.415 16.92"/>
  <path fill="#04060E" d="M50.916 35.986c-3.826 5.921-7.653 11.841-11.827 17.827 3.107-5.805 6.56-11.676 10.602-17.714.8-.148 1.013-.13 1.225-.113"/>
  <path fill="#0D101A" d="M25.342 81.854c-.305.154-.715.158-.92.157 2.507-5.579 5.218-11.156 8.257-16.641.327.273.329.455.33.637-2.454 5.231-4.908 10.462-7.667 15.847"/>
  <path fill="#060911" d="M421.392 171.994c1.07-3.054 2.453-6.255 3.944-9.703-1.25-1.129-2.741-2.473-4.213-4.17 2.329.764 4.639 1.88 7.313 3.174-2.394 3.753-4.563 7.153-7.044 10.7"/>
  <path fill="#06080F" d="M197.95 228.588a230 230 0 0 1-20.26-5.808c6.77 1.593 13.426 3.528 20.26 5.808"/>
  <path fill="#060710" d="M96.01 422.97c.115.783.47 2.109-.033 2.849-3.027 4.44-6.25 8.746-9.761 13.108 2.977-5.222 6.306-10.453 9.793-15.957"/>
  <path fill="#080B14" d="M225.082 233.975c.49 3.926-2.722 1.972-4.117 1.727-4.22-.74-8.344-2.032-12.558-3.472.23-.531.44-.765.58-1.064 5.31 1.038 10.62 2.076 16.095 2.809"/>
  <path fill="#080A12" d="M109.802 266.139c.545-.34 1.558-.805 1.98-.486 3.952 2.982 7.803 6.099 11.525 9.49-4.542-2.712-8.927-5.738-13.505-9.004"/>
  <path fill="#090B14" d="M417.005 156.012c-5.158-2.946-10.316-5.892-15.326-9.161 5.432 2.63 10.715 5.583 15.926 8.842-.248.311-.424.315-.6.32"/>
  <path fill="#060810" d="M156.539 333.946c-2.795 4.876-5.894 9.922-9.345 14.97 2.778-4.932 5.91-9.866 9.345-14.97"/>
  <path fill="#080A12" d="M345.404 183.002c1.062-9.092 5.774-11.55 12.412-6.099-2.232-.43-4.546-1.208-6.974-2.024-1.769 2.752-3.446 5.362-5.438 8.123"/>
  <path fill="#080B15" d="M64.96 384.947c4.33 2.524 8.934 5.205 13.404 8.215-4.466-2.468-8.798-5.263-13.404-8.215"/>
  <path fill="#060911" d="M231.422 352.023c2.492-4.533 5.292-9.224 8.45-13.892-2.475 4.592-5.309 9.164-8.45 13.892"/>
  <path fill="#090B14" d="M400.013 145.579c-4.526-2.155-9.213-4.62-13.886-7.448 4.584 2.137 9.154 4.637 13.886 7.448"/>
  <path fill="#080B15" d="M410.41 90.007c2.173-4.189 4.657-8.532 7.502-12.85-2.157 4.25-4.674 8.472-7.502 12.85"/>
  <path fill="#06080F" d="M176.903 222.207c-5.214.924-9.416-1.712-13.188-5.361 4.412 1.509 8.66 3.34 13.188 5.361"/>
  <path fill="#080A12" d="M383.044 280.567c-3.744-2.264-7.642-4.834-11.404-7.73 3.84 2.257 7.545 4.84 11.404 7.73"/>
  <path fill="#05070F" d="M165.458 453.055a113 113 0 0 1 6.326-10.976c-1.772 3.588-3.898 7.197-6.326 10.976m90.551-264.052c-2.542 3.575-5.083 7.15-7.975 10.782a75.5 75.5 0 0 1 6.798-10.691c.792-.108.985-.1 1.177-.09"/>
  <path fill="#080B15" d="M91.99 401.415a101 101 0 0 1 10.825 5.486c-3.506-1.493-7.087-3.332-10.824-5.486"/>
  <path fill="#090B13" d="M210.089 385.12c1.654-3.185 3.51-6.607 5.72-10.032-1.603 3.263-3.561 6.529-5.72 10.032"/>
  <path fill="#060710" d="M104.808 408.432c.046.87.711 2.417.203 3.245-1.572 2.562-3.59 4.85-5.787 7.254 1.653-3.377 3.66-6.763 5.584-10.5"/>
  <path fill="#05070E" d="M403.08 200.124c1.71-3.125 3.617-6.49 5.874-9.914-1.659 3.185-3.667 6.43-5.873 9.914"/>
  <path fill="#05070F" d="M282.57 145.972a100 100 0 0 1-6.143 10.003c1.713-3.262 3.774-6.551 6.144-10.003"/>
  <path fill="#0D101A" d="M329.541 368.946c-.194 3.893-2.298 6.58-6.625 7.459 1.895-2.568 4.112-4.935 6.625-7.459"/>
  <path fill="#0A0D17" d="M384.438 509.029a83 83 0 0 1 5.408-9.914c-1.461 3.258-3.281 6.504-5.408 9.914"/>
  <path fill="#05070F" d="M58.599 479.995c-1.604 3.06-3.518 6.27-5.748 9.32 1.602-3.162 3.52-6.165 5.748-9.32"/>
  <path fill="#080A12" d="M357.981 177.453a90 90 0 0 1 10.814 4.488c-3.493-1.157-7.057-2.67-10.814-4.488m-20.595 17.54a71 71 0 0 1 5.48-8.865c-1.481 2.919-3.323 5.823-5.48 8.865"/>
  <path fill="#090B14" d="M244.42 332.02a74 74 0 0 1 5.388-8.931c-1.456 2.926-3.268 5.852-5.388 8.932"/>
  <path fill="#05070E" d="M230.059 153.095c1.473-2.683 3.123-5.619 5.084-8.387-1.428 2.823-3.167 5.479-5.084 8.387"/>
  <path fill="#04060E" d="M256.275 188.795c-.458.2-.65.191-1.131.167 1.507-2.96 3.303-5.905 5.403-9.015-1.132 2.768-2.57 5.704-4.272 8.848"/>
  <path fill="#06080F" d="M208.587 231.078c.26.387.05.62-.452.89-3.401-.758-6.583-1.618-9.942-2.806 3.213.39 6.604 1.11 10.394 1.916"/>
  <path fill="#080A12" d="M431.357 57.002c1.276-2.41 2.87-4.947 4.787-7.333-1.274 2.502-2.872 4.854-4.787 7.333"/>
  <path fill="#0B0D15" d="M146.032 350.915c-1.62 2.507-3.24 5.013-5.164 7.348 1.321-2.747 2.947-5.32 4.862-7.856.29.04.302.508.302.508"/>
  <path fill="#080A12" d="M330.977 203.993c1.838-2.913 3.677-5.827 5.847-8.847-1.329 2.68-2.99 5.469-5.042 8.554-.39.296-.805.293-.805.293"/>
  <path fill="#070A13" d="M88.905 241.43c1.505 1.88 3.08 4.105 4.429 6.64-1.604-1.892-2.981-4.094-4.429-6.64"/>
  <path fill="#070912" d="M119.944 132.692c-2.022 1.53-4.314 3.232-6.921 4.709 2.006-1.663 4.33-3.1 6.92-4.709"/>
  <path fill="#04060E" d="M81.607 445.001a57 57 0 0 1-4.593 7.76c1.19-2.506 2.736-5.06 4.593-7.76"/>
  <path fill="#00020A" d="M440.004 42.981c1.483-2.299 2.967-4.598 4.804-6.901-.991 2.103-2.335 4.21-4.048 6.608-.368.291-.756.293-.756.293"/>
  <path fill="#080A12" d="M368.936 182.482a38.5 38.5 0 0 1 6.98 3.306c-2.26-.76-4.53-1.884-6.98-3.306"/>
  <path fill="#070912" d="M306.606 108.996a32 32 0 0 1-3.465 6.859c-.532.155-.995.147-.995.147 1.384-2.287 2.768-4.574 4.46-7.006"/>
  <path fill="#080A12" d="M184.033 425.082c1.066-2.1 2.3-4.46 3.882-6.89-1.006 2.163-2.36 4.397-3.882 6.89"/>
  <path fill="#060911" d="M223.353 364.364a35.3 35.3 0 0 1 3.536-6.227c-.852 2.045-2.06 4.065-3.536 6.227"/>
  <path fill="#080B15" d="M85.945 398.024c1.803.707 3.876 1.563 5.956 2.786-1.891-.635-3.788-1.635-5.956-2.786"/>
  <path fill="#05070E" d="M402.644 433.267c-1.553 1.438-3.424 2.929-5.622 4.219 1.55-1.523 3.427-2.844 5.622-4.219"/>
  <path fill="#080A12" d="M439.688 43.128c.316-.147.704-.149.898-.143-1.024 1.929-2.241 3.853-3.608 6.043.698-1.74 1.546-3.747 2.71-5.9"/>
  <path fill="#04060E" d="M76.477 452.904a37 37 0 0 1-3.375 5.92c.795-1.86 1.945-3.795 3.375-5.92"/>
  <path fill="#01020A" d="M316.529 93.93a49.7 49.7 0 0 1-4.25 7.03c1.084-2.272 2.52-4.563 4.25-7.03"/>
  <path fill="#070912" d="M310.579 102.968a31.2 31.2 0 0 1-3.373 5.947c.782-1.927 1.926-3.86 3.373-5.947"/>
  <path fill="#05070E" d="M386.819 442.667c-1.86.994-4.001 2.163-6.543 3.31 1.82-1.06 4.04-2.097 6.543-3.31"/>
  <path fill="#080A12" d="M388.056 284.674a26 26 0 0 1-4.951-3.504c1.61.818 3.203 2.01 4.95 3.504"/>
  <path fill="#060911" d="M227.47 358.06a31.6 31.6 0 0 1 3.355-5.957c-.777 1.932-1.919 3.86-3.355 5.958"/>
  <path fill="#080A12" d="M178.076 434.123c.789-1.705 1.765-3.64 3.063-5.417-.744 1.836-1.81 3.511-3.063 5.417"/>
  <path fill="#070910" d="M223.612 413.004a31 31 0 0 1-3.378 5.927c.784-1.92 1.927-3.852 3.378-5.927"/>
  <path fill="#0B0D15" d="M139.908 358.882c-.776 1.707-1.744 3.64-3.035 5.416.732-1.835 1.787-3.513 3.035-5.416"/>
  <path fill="#080B15" d="M385.43 128.032a30.5 30.5 0 0 1 3.417-5.914c-.794 1.927-1.952 3.845-3.417 5.914"/>
  <path fill="#05070F" d="M286.53 139.928a31.6 31.6 0 0 1-3.365 5.966c.78-1.936 1.923-3.866 3.364-5.966"/>
  <path fill="#090B13" d="M216.4 375.012c.647-1.822 1.601-3.786 2.865-5.824-.647 1.845-1.603 3.764-2.866 5.824"/>
  <path fill="#0A0D17" d="M420.228 419.851c-1.313.87-2.784 1.49-4.576 2.111 1.093-1.12.844-5.575 4.576-2.111"/>
  <path fill="#04060E" d="M38.551 53.944c-.595 1.73-1.481 3.623-2.704 5.365.58-1.834 1.497-3.517 2.704-5.365"/>
  <path fill="#05070F" d="M236.84 215.771a23.8 23.8 0 0 1-2.613 5.154c.542-1.648 1.447-3.31 2.613-5.154"/>
  <path fill="#090B14" d="M386.05 137.544a20.2 20.2 0 0 1-4.709-3.172c.121-.37.261-.367.261-.367 1.428 1.08 2.855 2.158 4.448 3.54"/>
  <path fill="#05070E" d="M240.499 137.093a35.6 35.6 0 0 1 3.462-5.876c-.821 1.861-1.998 3.779-3.462 5.876"/>
  <path fill="#060710" d="M85.63 439.001c-.486 1.56-1.272 3.251-2.55 4.978-.491.037-.75.023-.75.023 1-1.623 2-3.247 3.3-5.001"/>
  <path fill="#070910" d="M226.937 407.889c-.663 1.515-1.509 3.27-2.719 5.032.603-1.593 1.57-3.193 2.72-5.032"/>
  <path fill="#080A12" d="M399.978 299.554c.058.515.046.714.012 1.211a32 32 0 0 1-3.284-5.859c1.186 1.237 2.193 2.785 3.272 4.648"/>
  <path fill="#03040A" d="M25.375 130.008a24.8 24.8 0 0 1 3.502-4.886c-.821 1.607-2.01 3.18-3.502 4.886"/>
  <path fill="#080B15" d="M79.982 394.397c1.724.606 3.588 1.513 5.287 2.743-1.825-.6-3.486-1.521-5.287-2.743"/>
  <path fill="#04060E" d="M265.61 171.995a18.1 18.1 0 0 1-2.534 4.83c.492-1.58 1.36-3.133 2.533-4.83M33.299 65.808c-.291.017-.293-.165-.313-.619.636-1.81 1.29-3.35 2.075-5.177-.404 1.672-.938 3.634-1.762 5.796"/>
  <path fill="#05070F" d="M45.554 499.948c-.819 1.824-1.938 3.811-3.4 5.883.805-1.85 1.952-3.784 3.4-5.883"/>
  <path fill="#0A0D17" d="M390.437 499.038c.465-1.538 1.232-3.233 2.37-4.933-.441 1.588-1.255 3.182-2.37 4.933"/>
  <path fill="#05070E" d="M396.003 437.677c-1.285.986-2.835 2.151-4.77 3.277 1.245-1.06 2.874-2.078 4.77-3.277"/>
  <path fill="#080B15" d="M403.37 100.974a18.3 18.3 0 0 1 2.522-4.822c-.491 1.574-1.356 3.123-2.522 4.822"/>
  <path fill="#080A12" d="M103.744 260.9c1.27.683 2.73 1.604 4.17 2.902-1.34-.636-2.66-1.65-4.17-2.902"/>
  <path fill="#04060E" d="M72.57 458.937a17.1 17.1 0 0 1-2.73 4.453c.58-1.519 1.51-2.912 2.73-4.453"/>
  <path fill="#05070F" d="M50.627 492.021c-.527 1.47-1.362 3.087-2.554 4.77.51-1.498 1.379-3.062 2.554-4.77"/>
  <path fill="#070A13" d="M93.721 249.15c.85.722 1.848 1.676 2.629 2.946-.972-.694-1.726-1.705-2.629-2.946"/>
  <path fill="#00020A" d="M51.105 35.674c-.401.295-.614.277-1.144.227.531-1.622 1.381-3.212 2.509-5.002-.208 1.354-.693 2.909-1.365 4.775"/>
  <path fill="#0D101A" d="M317.367 380.98c-.536.027-.72.022-1.177.002 1.175-.993 2.625-1.971 4.402-3.038-.74.942-1.805 1.974-3.225 3.036"/>
  <path fill="#060912" d="M398.482 387.065c.507-1.476 1.309-3.127 2.476-4.839-.483 1.515-1.332 3.09-2.476 4.84"/>
  <path fill="#070912" d="M203.625 117.842c-2.095.052-4.545-.059-7.297-.42 2.112-.08 4.527.088 7.297.42M111.91 137.73c-.926.976-2.104 2.122-3.66 3.25.883-1.039 2.145-2.058 3.66-3.25"/>
  <path fill="#05070E" d="M237.376 141.984c.54-1.467 1.384-3.085 2.59-4.764-.52 1.497-1.403 3.055-2.59 4.764"/>
  <path fill="#04060E" d="M268.646 167.013c-.478 1.543-1.273 3.218-2.436 4.902.461-1.585 1.29-3.177 2.436-4.902"/>
  <path fill="#0B0D13" d="M322.938 331.447c1.225.517 2.605 1.33 3.988 2.517-1.275-.49-2.553-1.356-3.988-2.517"/>
  <path fill="#070910" d="M374.468 411.154c.674-.974 1.673-2.024 3.018-3.111-.667.986-1.68 2.01-3.018 3.111"/>
  <path fill="#05070F" d="M244.094 204.956c-.418 1.134-.976 2.54-1.905 3.944.34-1.224 1.052-2.448 1.905-3.944"/>
  <path fill="#05070E" d="M396.846 204.48c.77-.38 1.613-.43 2.876-.44-.037.998-.495 1.955-1.102 3.224-.704-1.017-1.203-1.736-1.774-2.783"/>
  <path fill="#060911" d="M418.369 176.002c.484-1.222 1.274-2.568 2.421-3.923-.467 1.261-1.292 2.53-2.421 3.923"/>
  <path fill="#04060E" d="M69.09 463.923c-.417 1.145-.99 2.554-1.938 3.955.345-1.235 1.064-2.463 1.938-3.955"/>
  <path fill="#060810" d="M163.064 323.98c-.425 1.12-.985 2.513-1.918 3.896.346-1.213 1.065-2.419 1.918-3.896"/>
  <path fill="#010101" d="M40.89 508.027c-.783 1.3-1.567 2.598-2.7 3.9.332-1.115 1.014-2.232 2.036-3.623.34-.274.664-.277.664-.277"/>
  <path fill="#060912" d="M395.417 390.978c.53-1.176 1.376-2.455 2.545-3.782-.528 1.194-1.378 2.437-2.545 3.782"/>
  <path fill="#0A0D17" d="M382.373 512.88c-.487.137-.669.128-1.124.104.588-1.255 1.45-2.496 2.645-3.812-.184 1.138-.7 2.35-1.52 3.707"/>
  <path fill="#05070E" d="M410.984 188.054c.403-1.096.966-2.448 1.882-3.89-.339 1.15-1.03 2.392-1.882 3.89"/>
  <path fill="#080A12" d="M375.973 186.362a8.5 8.5 0 0 1 3.314 1.77c-1.17-.276-2.184-.884-3.314-1.77"/>
  <path fill="#060810" d="M167.64 316.975a8.55 8.55 0 0 1-1.775 3.319c.277-1.172.887-2.187 1.775-3.32"/>
  <path fill="#060710" d="M98.657 419a8.8 8.8 0 0 1-1.807 3.327c.284-1.163.908-2.182 1.807-3.328"/>
  <path fill="#060911" d="M417.162 156.334c.02-.326.195-.33.635-.345 1.216.424 2.168.859 3.271 1.575-1.15-.115-2.45-.512-3.906-1.23"/>
  <path fill="#0A0D17" d="M77.078 341.575a8.7 8.7 0 0 1-3.384-1.703c1.18.248 2.216.838 3.384 1.703m3.903 2.067c-.044.32-.25.335-.763.382-1.241-.49-2.174-1.01-3.093-1.888 1.242.162 2.469.683 3.856 1.506"/>
  <path fill="#05070F" d="M239.631 211.972a8.4 8.4 0 0 1-1.783 3.302c.28-1.171.889-2.177 1.783-3.302"/>
  <path fill="#070910" d="M231.645 400.976a8.6 8.6 0 0 1-1.779 3.306c.281-1.17.891-2.179 1.779-3.306"/>
  <path fill="#05070E" d="M400.36 204.029c.3-1.081.88-2.278 1.79-3.312-.284 1.174-.898 2.185-1.79 3.312"/>
  <path fill="#090B13" d="M207.41 389.072a8.6 8.6 0 0 1 1.724-3.346c-.26 1.177-.856 2.198-1.724 3.346"/>
  <path fill="#01020A" d="M174.902 305.73c-.088.803-.392 1.762-1.047 2.57.043-.904.437-1.658 1.047-2.57m-1.998 3c-.094.8-.403 1.757-1.06 2.554.05-.906.448-1.652 1.06-2.554m3.995-5.997c-.09.8-.398 1.757-1.05 2.556.048-.905.441-1.653 1.05-2.556m-6.015 9.014a5.3 5.3 0 0 1-.562 2.843c-.343-.307-.355-.505-.366-.702.233-.66.466-1.32.928-2.141"/>
  <path fill="#060810" d="M169.66 314.013c.307.072.32.27.347.763-.486.92-.988 1.543-1.823 2.157.171-.937.675-1.866 1.476-2.92"/>
  <path fill="#080A12" d="M182.02 428.15c.156-.733.46-1.665 1.11-2.45-.092.848-.527 1.55-1.11 2.45"/>
  <path fill="#090B13" d="M237.594 391.96c-.144.885-.58 1.908-1.389 2.94.117-.927.608-1.864 1.39-2.94"/>
  <path fill="#05070E" d="M390.63 440.9c-.543.557-1.379 1.174-2.547 1.562.53-.654 1.392-1.077 2.547-1.562"/>
  <path fill="#060810" d="M160.568 327.935c-.15.882-.591 1.912-1.41 2.938.121-.932.62-1.862 1.41-2.938m-1.998 3.005c-.158.879-.605 1.905-1.432 2.924.128-.93.636-1.854 1.433-2.925"/>
  <path fill="#070910" d="M219.645 419.009c-.157.878-.605 1.888-1.424 2.908.131-.919.632-1.848 1.424-2.908"/>
  <path fill="#080B15" d="M67.229 335.08c-.764-.168-1.713-.517-2.505-1.204.877.116 1.6.57 2.505 1.204"/>
  <path fill="#060911" d="M240.45 338.066c.137-.88.56-1.913 1.362-2.956-.108.927-.592 1.866-1.363 2.956"/>
  <path fill="#080A12" d="M188.448 418.071c.136-.884.559-1.92 1.36-2.964-.106.931-.589 1.872-1.36 2.964"/>
  <path fill="#05070E" d="M228.017 156.159c.164-.734.474-1.666 1.121-2.436-.1.854-.537 1.546-1.12 2.436"/>
  <path fill="#080A12" d="M190.4 415.039c.146-.887.585-1.909 1.397-2.94-.119.928-.611 1.866-1.396 2.94"/>
  <path fill="#080B15" d="M389.424 122.058c.028-.85.344-1.842.992-2.9-.012.876-.358 1.817-.992 2.9"/>
  <path fill="#070910" d="M228.956 404.847c-.145.737-.444 1.666-1.084 2.444.082-.851.506-1.55 1.084-2.444m4.656-6.873c-.145.883-.583 1.9-1.391 2.937.12-.922.609-1.863 1.391-2.937"/>
  <path fill="#05070F" d="M47.534 496.919c-.146.877-.572 1.914-1.38 2.948.112-.931.606-1.86 1.38-2.948"/>
  <path fill="#080A12" d="M343.44 186.064c.132-.884.552-1.919 1.348-2.968-.103.93-.58 1.874-1.347 2.968"/>
  <path fill="#04060E" d="M66.568 467.94c-.146.881-.585 1.912-1.402 2.943.118-.93.614-1.861 1.402-2.943m-1.99 3.01c-.14.881-.574 1.91-1.383 2.948.112-.926.6-1.863 1.383-2.948"/>
  <path fill="#080B14" d="M232.033 225.08c-.629.802-1.257 1.604-2.186 2.251a6.26 6.26 0 0 1 1.847-3.03c.312.38.326.58.339.78"/>
  <path fill="#080B15" d="M420.434 74.063c.153-.88.596-1.905 1.418-2.925-.124.93-.626 1.855-1.418 2.925"/>
  <path fill="#070A13" d="M96.734 253.096c.891.287 1.93.796 2.807 1.624-.366.339-.572.358-.777.377a49 49 0 0 1-2.03-2.001"/>
  <path fill="#00020A" d="M445.376 36.02c.142-.886.576-1.906 1.38-2.947-.116.923-.601 1.868-1.38 2.947"/>
  <path fill="#05070F" d="M61.025 478.054c-.505.628-1.01 1.257-1.85 1.872.166-.948.67-1.884 1.49-2.648.331.372.346.574.36.776"/>
  <path fill="#080B15" d="M422.443 71.068c.147-.882.58-1.913 1.393-2.942-.116.933-.61 1.863-1.393 2.942M408.385 93.02c.152-.88.596-1.896 1.413-2.92-.126.922-.623 1.853-1.413 2.92"/>
  <path fill="#05070F" d="M247.515 199.9c-.143.879-.565 1.923-1.37 2.962.108-.935.6-1.865 1.37-2.961"/>
  <path fill="#080B15" d="M401.37 104.004c.144-.886.582-1.899 1.388-2.928-.118.923-.605 1.862-1.387 2.928m-1.996 3.005c.145-.886.584-1.898 1.393-2.926-.12.923-.609 1.862-1.393 2.926"/>
  <path fill="#080A12" d="M381.954 190.376c.868.19 1.855.662 2.958 1.587.116.455.095.725.095.725-.978-.678-1.956-1.355-3.053-2.312"/>
  <path fill="#06080F" d="M162.074 215.558c-.887-.134-1.926-.55-2.98-1.345.933.103 1.88.583 2.98 1.345"/>
  <path fill="#05070F" d="M241.599 208.966c-.141.883-.576 1.905-1.383 2.944.115-.924.602-1.864 1.383-2.944"/>
  <path fill="#080B15" d="M418.48 77.095c.139-.882.559-1.922 1.36-2.962-.106.934-.594 1.869-1.36 2.962"/>
  <path fill="#080B14" d="M328.447 209.07c.188-.832.665-1.813 1.493-2.867-.168.858-.686 1.787-1.493 2.867"/>
  <path fill="#080B15" d="M69.986 338.012c-.839-.622-1.678-1.243-2.396-2.188.723.148 1.324.62 2.164 1.447.238.354.232.74.232.74"/>
  <path fill="#05070F" d="M51.997 489.862c-.03.53-.209 1.282-.757 2.057-.044-.596.283-1.216.757-2.057m236.511-352.964c-.178.829-.636 1.828-1.446 2.903.153-.86.66-1.797 1.446-2.903"/>
  <path fill="#070910" d="M371.393 413.12c.496-.628 1.309-1.337 2.474-2.008-.484.669-1.32 1.299-2.474 2.008"/>
  <path fill="#080A12" d="M124.035 275.943c.712.141 1.694.393 2.747 1.006-.778-.057-1.628-.476-2.747-1.006"/>
  <path fill="#05070E" d="M236.042 144.146c.014-.537.187-1.286.729-2.06.056.6-.257 1.224-.73 2.06"/>
  <path fill="#070910" d="M159.769 169.006c.35-.041.788-.021 1.007-.015-.564.646-1.346 1.285-2.418 2.033.16-.586.61-1.281 1.41-2.018"/>
  <path fill="#080A12" d="M379.858 189.04c.533.025 1.277.207 2.037.76-.598.047-1.211-.279-2.037-.76"/>
  <path fill="#05070F" d="M164.33 454.896c-.078-.508.103-1.151.597-1.773.095.561-.122 1.1-.598 1.773"/>
  <path fill="#01020A" d="M49.414 107.177c.51-.632 1.337-1.348 2.52-1.994-.496.682-1.35 1.296-2.52 1.994"/>
  <path fill="#05070F" d="M172.377 442.007c.166-.838.645-1.8 1.452-2.866-.162.844-.65 1.793-1.452 2.866m1.998-3.007c.169-.829.646-1.787 1.449-2.857-.163.835-.652 1.78-1.45 2.857"/>
  <path fill="#080A12" d="M395.163 292.597c-.525-.283-1.115-.832-1.497-1.691.616.268 1.024.847 1.497 1.69"/>
  <path fill="#080B15" d="M383.438 131.062c.172-.836.635-1.82 1.44-2.893-.155.855-.652 1.8-1.44 2.893"/>
  <path fill="#070910" d="M153.436 176.13a5.9 5.9 0 0 1 1.693-2.417c-.267.876-.853 1.587-1.693 2.417"/>
  <path fill="#01020A" d="M45.33 110.074c.312-.495.89-1.063 1.773-1.42-.3.59-.905.968-1.774 1.42"/>
  <path fill="#05070E" d="M414.374 182.004c.168-.834.647-1.792 1.45-2.862-.162.837-.65 1.787-1.45 2.862"/>
  <path fill="#070912" d="M123.63 130.866a7.15 7.15 0 0 1-2.61 1.573c.571-.645 1.444-1.075 2.61-1.573"/>
  <path fill="#080A12" d="M99.68 256.645c.572.204 1.245.66 1.743 1.461-.665-.172-1.154-.69-1.744-1.461"/>
  <path fill="#03040A" d="M21.433 135.081c.259-.812.798-1.768 1.708-2.706-.23.866-.828 1.714-1.708 2.706"/>
  <path fill="#080B15" d="M406.479 96.083c.15-.834.586-1.83 1.362-2.923-.132.855-.604 1.809-1.362 2.923"/>
  <path fill="#090B13" d="M235.637 394.95c.127.503-.012 1.116-.592 1.897-.441.167-.773.157-.773.157.367-.648.733-1.297 1.365-2.055"/>
  <path fill="#080B14" d="M330.715 204.185c.262-.192.677-.189.884-.188-.157.661-.522 1.322-1.151 2.113-.175-.491-.085-1.113.267-1.925"/>
  <path fill="#04060E" d="M61.294 477.827c-.283.025-.298-.177-.335-.68.118-.881.259-1.46.683-2.155.163.79.042 1.7-.348 2.835"/>
  <path fill="#05070F" d="M41.177 507.86c-.287.167-.61.17-.772.163.21-.654.582-1.301 1.22-2.067.123.5-.019 1.12-.448 1.905"/>
  <path fill="#05070E" d="M389.718 197.081a2.9 2.9 0 0 1 1.594 1.065c-.595-.088-1.032-.483-1.594-1.065"/>
  <path fill="#080A12" d="M19.389 138.066c-.142-.495-.017-1.11.57-1.904.463-.178.84-.17.84-.17-.38.651-.762 1.302-1.41 2.074"/>
  <path fill="#01020A" d="M318.818 90.404c-.08.342-.2.945-.625 1.545-.009-.43.29-.856.625-1.545M42.96 110.92c.517-.301 1.035-.602 1.866-.874-.2.636-.712 1.244-1.53 1.64-.315-.397-.326-.582-.336-.766"/>
  <path fill="#080A12" d="M101.725 258.954c.506.16 1.173.514 1.74 1.208-.592-.112-1.086-.563-1.74-1.208"/>
  <path fill="#03040A" d="M42.683 111.071c.287.033.298.218.318.68-.424.642-.856 1.007-1.573 1.455.136-.605.557-1.294 1.255-2.135m-3.372 4.024c.219-.567.717-1.27 1.583-1.949-.19.62-.746 1.217-1.583 1.95m-2.966 2.915c.194-.578.673-1.275 1.511-1.983-.17.614-.697 1.24-1.511 1.983"/>
  <path fill="#0A0D17" d="M70.177 338.276c-.19-.264-.185-.651-.183-.844.663.158 1.324.509 2.112 1.119-.494.169-1.116.079-1.929-.275"/>
  <path fill="#03040A" d="M32.064 122.314c.023-.322.247-.799.81-1.286.023.37-.293.75-.81 1.286"/>
  <path fill="#080B15" d="M102.938 407.43c.47-.118 1.087.045 1.83.52-.478.13-1.08-.054-1.83-.52"/>
  <path fill="#070910" d="M217.631 421.985c.093.475-.105 1.079-.621 1.788-.102-.482.115-1.07.621-1.788"/>
  <path fill="#01020A" d="M317.662 92.02c.073.458-.136 1.053-.657 1.758-.083-.467.146-1.044.657-1.758"/>
  <path fill="#03040A" d="M30.316 124.077c.036-.442.303-.967.867-1.354-.014.515-.325.893-.867 1.354"/>
  <path fill="#070912" d="M311.694 101.065c.073.44-.124 1.032-.62 1.746-.084-.45.134-1.022.62-1.746"/>
  <path fill="#080A12" d="M192.396 412.02c-.2-.445-.108-1.027.22-1.8.182.427.127 1.044-.22 1.8m-16.102 24.037c.04-.436.31-.945.867-1.318-.021.505-.329.875-.867 1.318"/>
  <path fill="#080B15" d="M398.354 108.01c-.072-.28.103-.634.53-.959.074.315-.104.6-.53.959"/>
  <path fill="#01020A" d="M48.048 108.325c.036-.307.27-.765.839-1.205.01.363-.316.708-.84 1.205"/>
  <path fill="#080B15" d="M424.428 68.051q-.222-.7.423-1.862.222.7-.423 1.862"/>
  <path fill="#080A12" d="M396.298 293.898c-.308-.02-.75-.24-1.172-.788.359-.023.699.284 1.172.788"/>
  <path fill="#0B0D13" d="M329.877 337.396c.245-.142.569.004 1.015.643.113.663.103.832.094 1.002-.344-.452-.688-.904-1.11-1.645"/>
  <path fill="#05070E" d="M409.428 190.154c-.006-.458.22-1.018.763-1.472.036.527-.248.948-.763 1.472"/>
  <path fill="#060911" d="M242.357 335.083c-.13-.51-.013-1.114.375-1.63.278.262.285.436.292.61-.14.309-.28.617-.667 1.02"/>
  <path fill="#090B14" d="M243.285 333.91c-.268-.02-.275-.195-.287-.63.222-.53.448-.798.937-1.131.046.493-.172 1.05-.65 1.762"/>
  <path fill="#060810" d="M164.55 321.828c.016.462-.2 1.027-.737 1.486-.045-.532.23-.958.737-1.486"/>
  <path fill="#080B14" d="M316.352 227.756c-.076-.479.135-.984.626-1.562.074.463-.133.999-.626 1.562"/>
  <path fill="#070910" d="M156.08 173.291c.005-.314.205-.767.73-1.222.037.36-.25.722-.73 1.222"/>
  <path fill="#01020A" d="M178.183 300.805c.062.405 0 .988-.384 1.443-.129-.506.066-.886.384-1.443m1.871-2.57c.037.286-.031.735-.299 1.006-.061-.395.07-.617.3-1.006"/>
  <path fill="#05070F" d="M232.289 224.862c-.27.018-.283-.182-.315-.683.098-.615.215-.93.562-1.357.157.533.083 1.178-.247 2.04"/>
  <path fill="#080B14" d="M228.61 228.876c-.002.455-.24 1.006-.796 1.455-.025-.522.267-.94.796-1.455"/>
  <path fill="#080A12" d="M391.292 287.91c-.318-.019-.78-.24-1.253-.793.364-.026.737.282 1.253.792"/>
  <path fill="#060911" d="M417.381 178.013c-.133-.473.029-1.082.482-1.843.132.468-.027 1.088-.482 1.843"/>
  <path fill="#04060E" d="M262.553 176.826c.011.46-.206 1.025-.74 1.477-.042-.533.235-.953.74-1.477"/>
  <path fill="#080B14" d="M226.633 231.898c-.01.452-.257.996-.82 1.435-.015-.518.283-.93.82-1.435"/>
  <path fill="#080A12" d="M371.145 272.097c-.387.079-.942.047-1.374-.299.484-.146.845.022 1.374.3"/>
  <path fill="#05070E" d="M413.405 184.038c-.14-.473.013-1.09.46-1.865.14.47-.014 1.095-.46 1.865"/>
  <path fill="#080A12" d="M107.903 264.336c.441.026.963.278 1.347.823-.514-.004-.89-.3-1.347-.823"/>
  <path fill="#04060E" d="M331.025 339.303c-.03-.432-.02-.601-.004-1.025.314.251.62.757.902 1.58-.303.113-.58-.09-.898-.555"/>
  <path fill="#05070E" d="M387.946 195.295c.435.042.949.312 1.32.87-.507-.02-.874-.33-1.32-.87"/>
  <path fill="#06080F" d="M159.013 213.616c-.456.177-1.053.06-1.836-.309.44-.163 1.068-.074 1.836.309"/>
  <path fill="#080B15" d="M62.93 383.333c.446.02.98.282 1.41.855-.51.004-.917-.305-1.41-.855"/>
  <path fill="#060810" d="M146.296 350.76c-.264.155-.276-.313-.29-.547.126-.545.266-.857.656-1.267.133.487.016 1.073-.366 1.814"/>
  <path fill="#05070F" d="M289.645 134.997c.078.471-.133 1.068-.665 1.763-.089-.48.144-1.059.665-1.763"/>
  <path fill="#0D101A" d="M330.664 367.003c.297.074.308.274.329.774-.232.534-.472.768-.969 1.042-.052-.537.152-1.114.64-1.816"/>
  <path fill="#05070F" d="M233.644 220.995c.074.472-.14 1.068-.68 1.756-.085-.482.153-1.058.68-1.756"/>
  <path fill="#080B15" d="M381.778 133.818c-.176.187-.316.185-.38.182.124-.493.314-.982.795-1.36.115.404-.062.697-.415 1.178"/>
  <path fill="#0D101A" d="M322.004 376.671c-.021.328-.257.788-.82 1.247-.016-.372.295-.743.82-1.247"/>
  <path fill="#05070E" d="M392.677 200.027c.326.03.806.268 1.295.848-.374.015-.758-.312-1.295-.848"/>
  <path fill="#05070F" d="M245.606 202.875c-.001.456-.243 1.013-.806 1.475-.026-.52.27-.947.806-1.475"/>
  <path fill="#05070E" d="M385.856 193.387c.219-.092.554.074.998.507-.221.095-.552-.077-.998-.507"/>
  <path fill="#090B13" d="M206.311 390.04q-.078-.32.646-.865.079.32-.646.865"/>
  <path fill="#080A12" d="M98.833 255.343c.136-.265.342-.284.858-.322.257.213.205.447.001 1.005-.364.072-.577-.183-.859-.683"/>
  <path fill="#05070E" d="M391.805 199.002c-.06-.067.297-.396.297-.396s.344.34.183.526c-.161.187-.42-.062-.48-.13m4.08 4.302c.2-.047.52.17.922.673-.212.054-.507-.177-.922-.673"/>
  <path fill="#080B14" d="M227.09 230.897c.18.027.274.235.308.452.016.1-.084.22-.379.45-.158-.156-.089-.434.072-.902m1.967-2.991c.184.029.281.23.317.443.017.099-.086.217-.384.437-.177-.16-.11-.431.067-.88"/>
  <path fill="#04060E" d="M62.671 473.915q.117.32-.553.952-.116-.32.553-.952"/>
  <path fill="#06080F" d="M163.083 216.03c-.135.137-.447.17-.868-.048.157-.182.424-.118.868.048"/>
  <path fill="#05070E" d="M386.942 194.305q.316-.104.927.579-.317.104-.927-.58m-1.758-1.418c-.177-.198-.156-.468-.14-.6.399-.098.64.104.778.724-.127.19-.294.132-.638-.124"/>
  <path fill="#05070F" d="M301.66 116.903q.122.325-.541.962-.122-.324.541-.962"/>
  <path fill="#080B15" d="M78.91 393.888c.133-.13.458-.156.913.059-.148.15-.431.084-.913-.059"/>
  <path fill="#03040A" d="M24.441 131.175c-.103-.217.044-.562.456-1.027.109.22-.049.559-.456 1.027m4.944-6.028c-.087-.219.085-.553.527-.995.091.221-.089.55-.527.995"/>
  <path fill="#070910" d="M234.126 397.22c.146-.216.478-.206.643-.201-.04.265-.244.524-.699.848-.197-.1-.143-.266.056-.647"/>
  <path fill="#03040A" d="M23.632 132.307c-.114-.216-.004-.587.4-1.047.137.237-.02.564-.4 1.047"/>
  <path fill="#080B15" d="M382.897 132.136c-.135-.148-.146-.48.097-.925.179.17.102.456-.097.925"/>
  <path fill="#03040A" d="M20.952 135.795c-.152.197-.53.19-.718.192.039-.25.267-.505.757-.812.262-.052.114.423-.039.62"/>
  <path fill="#090B14" d="M401.06 146.074c-.129.13-.441.165-.876-.04.145-.16.416-.098.876.04"/>
  <path fill="#0A0D17" d="M73.078 339.029c-.139.136-.442.164-.838-.057.164-.19.42-.126.838.057"/>
  <path fill="#03040A" d="M35.278 119.086c-.062-.2.134-.522.599-.952.065.204-.137.517-.599.952"/>
  <path fill="#04060E" d="M261.057 178.89c.187.026.289.233.327.45.017.1-.09.223-.395.454-.18-.16-.11-.44.068-.904"/>
  <path fill="#0B0D13" d="M328.895 336.287c.2-.051.517.157.923.645-.209.058-.506-.164-.923-.645"/>
  <path fill="#05070F" d="M302.04 116.223c.106-.22.569-.213.8-.203-.017.263-.267.515-.78.83-.265.064-.126-.406-.02-.627"/>
  <path fill="#060810" d="M165 320.902c.195.037.3.233.338.442.018.095-.095.213-.409.412-.226-.18-.155-.44.071-.854"/>
  <path fill="#070910" d="M157.3 172.05q-.1-.315.585-.918.101.315-.584.918"/>
  <path fill="#01020A" d="M178.983 299.746c.187.11.281.306.298.508.007.082-.153.18-.503.172-.19-.29-.075-.456.205-.68"/>
  <path fill="#080A12" d="M393.094 289.974c.038.005-.17.367-.17.367s-.302-.284-.116-.39c.185-.104.248.019.286.023m-1.049-1.018c.03-.006-.125.367-.125.367s-.299-.266-.12-.367c.18-.102.214.007.245 0"/>
  <path fill="#060911" d="M416.298 179.05q-.094-.317.608-.909.094.317-.608.91"/>
  <path fill="#04060E" d="M82.166 444.218c.163-.216.423-.202.55-.186.115.386-.062.64-.644.846-.182-.103-.125-.274.094-.66"/>
</svg>
