<svg xmlns="http://www.w3.org/2000/svg" style="height:50px" viewBox="43 28 330 67" preserveAspectRatio="xMidYMid meet"><defs><style>.cls-2{fill:#7ac4ac}</style></defs><title>logo_NEXU.pl</title><path d="M173.2 37.66a5.14 5.14 0 0 0 3.52-1.25 4.16 4.16 0 0 0 1.42-3.28 4.5 4.5 0 0 0-1.42-3.45 4.93 4.93 0 0 0-3.52-1.33h-27.13a4.82 4.82 0 0 0-4.94 4.94V80.1a4.84 4.84 0 0 0 4.94 4.9h27.13a5 5 0 0 0 3.52-1.3 4.28 4.28 0 0 0 1.42-3.32 4.5 4.5 0 0 0-1.42-3.28 4.8 4.8 0 0 0-3.52-1.41h-21.95v-15h18.3a5.12 5.12 0 0 0 3.53-1.25 4.19 4.19 0 0 0 1.41-3.28 4.52 4.52 0 0 0-1.41-3.44 4.92 4.92 0 0 0-3.53-1.34h-18.3V37.66ZM232.85 32.8a4.54 4.54 0 0 0-1.34-3.08 4.17 4.17 0 0 0-3.19-1.45 4.86 4.86 0 0 0-4 2.34L210.4 49.14l-14.24-18.93a4.86 4.86 0 0 0-4-2.11 5 5 0 0 0-3.36 1.42 4.56 4.56 0 0 0-1.55 3.48 4.45 4.45 0 0 0 1.06 3l15.6 20.74-15.6 21.13a5.28 5.28 0 0 0-1.22 3.32 4.5 4.5 0 0 0 4.38 4.29 4.82 4.82 0 0 0 4-2.26l14-19 14.41 19.16a4.85 4.85 0 0 0 4 2.1 5.2 5.2 0 0 0 3.24-1.29 4.3 4.3 0 0 0 1.62-3.56 4.83 4.83 0 0 0-1-3L216 56.57l15.8-20.85a4.74 4.74 0 0 0 1.05-2.92M282 28.27a4.14 4.14 0 0 0-3.32 1.41 5.24 5.24 0 0 0-1.22 3.53v29.32a12.7 12.7 0 0 1-6.72 11.58 13.4 13.4 0 0 1-6.48 1.62 12.43 12.43 0 0 1-10.73-6.2 13.54 13.54 0 0 1-1.74-7V33.21a4.66 4.66 0 0 0-1.5-3.53 4.8 4.8 0 0 0-3.29-1.41 5.16 5.16 0 0 0-3.73 1.41 4.73 4.73 0 0 0-1.45 3.53v29.32a24.06 24.06 0 0 0 2.87 11.9 20.75 20.75 0 0 0 7.94 8.1 24.9 24.9 0 0 0 23.36 0 20.86 20.86 0 0 0 7.9-8.1 24.07 24.07 0 0 0 2.88-11.9V33.21a5.06 5.06 0 0 0-1.3-3.53 4.4 4.4 0 0 0-3.47-1.41M297.67 75.18a4.9 4.9 0 0 0-3.67 1.36 4.75 4.75 0 0 0-1.37 3.5 4.93 4.93 0 0 0 1.37 3.6 4.85 4.85 0 0 0 3.63 1.4 4.7 4.7 0 0 0 3.63-1.4 5.06 5.06 0 0 0 1.3-3.6 4.86 4.86 0 0 0-1.3-3.5 4.75 4.75 0 0 0-3.59-1.36M338.1 53.51a13.65 13.65 0 0 0-7.49-2.06 12.9 12.9 0 0 0-6.4 1.56 10.4 10.4 0 0 0-4.2 4.17v-1.4q0-4.2-4.13-4.2t-4.07 4.2V95q0 4.2 4.13 4.2t4.2-4.2V79.84a10.6 10.6 0 0 0 4.23 4 12.9 12.9 0 0 0 6.24 1.5 13.64 13.64 0 0 0 7.53-2.06 13.86 13.86 0 0 0 5-5.9 21.1 21.1 0 0 0 1.8-9 20.8 20.8 0 0 0-1.8-9 13.8 13.8 0 0 0-5.04-5.87m-3 22.83a8.06 8.06 0 0 1-12 0q-2.26-2.7-2.27-8c0-3.56.76-6.21 2.27-8a8.2 8.2 0 0 1 12 0c1.51 1.76 2.27 4.41 2.27 8s-.75 6.2-2.26 8ZM368 79.11c-.64-.84-1.88-.6-3-.6q-5 0-5-6V41.38q0-4.2-4.2-4.2t-4.13 4.2v31.53q0 12.47 11.13 12.46a7 7 0 0 0 4.2-1.24 3.73 3.73 0 0 0 1.48-2.86 3.3 3.3 0 0 0-.48-2.16M48.64 62.36h-16a4.26 4.26 0 0 0 0 8.51h16a4.26 4.26 0 1 0 0-8.51M70.16 76.54h-9.22a4.25 4.25 0 0 0 0 8.5h9.22a4.25 4.25 0 0 0 0-8.5M56.19 36.85A4.22 4.22 0 1 0 52 32.63a4.22 4.22 0 0 0 4.19 4.22" class="cls-2"/><path d="M123.59 28.35a4.24 4.24 0 0 0-3.24 1.29 4.57 4.57 0 0 0-1.21 3.24v34.85l-29.48-37.6a3.46 3.46 0 0 0-1.78-1.34 7 7 0 0 0-2.35-.44H68a4.25 4.25 0 0 0 0 8.5h8.31a4.25 4.25 0 0 1 0 8.5H43.23a4.26 4.26 0 0 0 0 8.51h33.11a4.25 4.25 0 0 1 0 8.5H64.49a4.26 4.26 0 0 0 0 8.51h11.85a4.27 4.27 0 0 1 4.25 4.25v5.38a4.54 4.54 0 0 0 1.21 3.24A4.13 4.13 0 0 0 85 85a4.35 4.35 0 0 0 3.28-1.3 4.45 4.45 0 0 0 1.22-3.2V45.92l29.72 37.74a3.7 3.7 0 0 0 1.66 1A6.8 6.8 0 0 0 123 85a4.85 4.85 0 0 0 5-4.9V32.88a4.58 4.58 0 0 0-1.22-3.24 4.14 4.14 0 0 0-3.19-1.29" class="cls-2"/></svg>