<?xml version="1.0" encoding="UTF-8"?>
<svg xmlns="http://www.w3.org/2000/svg" width="153" height="24" viewBox="0 0 153 24" fill="none">
  <path d="M32.6888 9.92609C35.8463 9.92609 38.4004 12.449 38.4004 15.528C38.4004 18.6071 35.8281 21.13 32.6888 21.13C29.5496 21.13 26.9773 18.6071 26.9773 15.528C26.9773 12.449 29.5496 9.92609 32.6888 9.92609ZM32.6888 7.0924C27.9289 7.0924 24.0695 10.8749 24.0695 15.5444C24.0695 20.2139 27.9271 23.9964 32.6888 23.9964C37.4506 23.9964 41.3081 20.2139 41.3081 15.5444C41.3081 10.8749 37.4506 7.0924 32.6888 7.0924Z" fill="#062537"></path>
  <path d="M33.834 15.0809C33.3288 15.6989 32.1986 15.3899 32.1986 14.6174V9.41169C33.1199 9.41169 34.0411 9.54075 34.9024 9.77159C35.7637 10.0024 36.5959 10.3896 37.3391 10.8549L33.8322 15.0827L33.834 15.0809Z" fill="#062537"></path>
  <path d="M2.01514 23.9146C1.36644 23.9146 0.866745 23.7346 0.516049 23.3911C0.16717 23.0476 0 22.5223 0 21.8679V2.11391C0 1.42684 0.16717 0.901547 0.516049 0.541656C0.864928 0.181765 1.31556 0 1.88067 0C2.39672 0 2.78013 0.0981518 3.04542 0.278097C3.31253 0.474401 3.61053 0.785218 3.97758 1.22872L16.897 17.7237H16.0157V2.01576C16.0157 1.37777 16.1829 0.86883 16.5318 0.525298C16.8806 0.165407 17.3803 0.00181941 18.0309 0.00181941C18.6814 0.00181941 19.1792 0.181766 19.5136 0.525298C19.8461 0.885189 20.0133 1.37595 20.0133 2.01576V21.9334C20.0133 22.555 19.8643 23.0476 19.5463 23.3911C19.2301 23.751 18.7977 23.9146 18.2634 23.9146C17.7292 23.9146 17.3313 23.8164 17.0315 23.6201C16.7316 23.4238 16.3991 23.0966 16.0321 22.6531L3.14718 6.15813H3.99575V21.8661C3.99575 22.5368 3.82858 23.0457 3.49606 23.3893C3.16353 23.7328 2.66384 23.9128 2.01332 23.9128H2.01514V23.9146Z" fill="#062537"></path>
  <path d="M50.6129 23.9146C50.0478 23.9146 49.5644 23.7673 49.1483 23.4892C48.7322 23.1948 48.3815 22.7531 48.1162 22.1624L42.7558 9.90972C42.5559 9.41715 42.4724 8.97546 42.5396 8.55014C42.5887 8.12481 42.8067 7.79582 43.1392 7.53408C43.4718 7.27234 43.9714 7.15783 44.5711 7.15783C45.0871 7.15783 45.5032 7.27234 45.8194 7.50136C46.1356 7.73039 46.4191 8.17207 46.668 8.81187L51.2289 19.9994H50.2131L54.9084 8.77916C55.1574 8.15753 55.4408 7.73039 55.7734 7.50136C56.1059 7.27234 56.5402 7.15783 57.1053 7.15783C57.605 7.15783 57.9866 7.2887 58.2864 7.53408C58.5862 7.79582 58.7534 8.12481 58.8188 8.53378C58.886 8.94274 58.8188 9.38443 58.5862 9.87701L53.1259 22.1624C52.8769 22.7531 52.5426 23.2111 52.1265 23.4892C51.7104 23.7837 51.2107 23.9146 50.6274 23.9146H50.611H50.6129Z" fill="#062537"></path>
  <path d="M66.8121 23.98C65.6146 23.98 64.5644 23.751 63.6159 23.2929C62.6837 22.8349 61.9514 22.2278 61.419 21.459C60.8866 20.6883 60.6195 19.8049 60.6195 18.8379C60.6195 17.6419 60.9357 16.6913 61.568 16.0042C62.2004 15.299 63.2161 14.8082 64.6316 14.4974C66.0471 14.1866 67.9441 14.0394 70.3245 14.0394H72.0053V16.4314H70.3572C68.9581 16.4314 67.8442 16.4968 67.0102 16.6277C66.1779 16.7586 65.5947 16.9876 65.2458 17.3148C64.8969 17.6419 64.7297 18.0854 64.7297 18.658C64.7297 19.3941 64.9968 19.9848 65.5129 20.4429C66.0289 20.9009 66.7449 21.1481 67.677 21.1481C68.4257 21.1481 69.0762 20.9846 69.6576 20.641C70.2227 20.2975 70.6897 19.8213 71.0223 19.2324C71.3548 18.6434 71.522 17.9546 71.522 17.1693V13.3523C71.522 12.2381 71.273 11.4529 70.7733 10.9603C70.2736 10.4696 69.4414 10.2242 68.2767 10.2242C67.628 10.2242 66.9284 10.306 66.1616 10.4532C65.4129 10.6004 64.6134 10.8785 63.7812 11.2566C63.3487 11.4529 62.9817 11.5183 62.6492 11.4202C62.3167 11.3384 62.0659 11.1421 61.8824 10.8785C61.6988 10.6004 61.6153 10.306 61.6153 9.96062C61.6153 9.61527 61.6988 9.30445 61.8824 8.97728C62.0659 8.65011 62.3657 8.42109 62.7982 8.2575C63.8303 7.83217 64.8297 7.5359 65.7782 7.35777C66.7267 7.17783 67.6098 7.09603 68.393 7.09603C70.0083 7.09603 71.3403 7.34141 72.3887 7.83218C73.4372 8.32294 74.2203 9.06089 74.7364 10.0442C75.2524 11.0276 75.5195 12.3054 75.5195 13.8449V21.8061C75.5195 22.4932 75.3524 23.0185 75.0198 23.3784C74.6873 23.7383 74.204 23.92 73.5716 23.92C72.9393 23.92 72.4559 23.7401 72.1071 23.3784C71.7582 23.0167 71.591 22.4932 71.591 21.8061V20.2175H71.8581C71.7073 20.9882 71.3911 21.6589 70.926 22.2314C70.459 22.7876 69.8939 23.2311 69.1943 23.542C68.4947 23.8528 67.6952 24 66.7976 24L66.8139 23.9836V23.98H66.8121Z" fill="#062537"></path>
  <path d="M82.4281 23.651C81.7285 23.651 81.1961 23.4547 80.8127 23.0785C80.4293 22.6859 80.2476 22.1606 80.2476 21.4735V2.30839C80.2476 1.60315 80.4311 1.06332 80.7963 0.703428C81.1616 0.343537 81.6958 0.161772 82.3954 0.161772C83.0949 0.161772 83.6273 0.341719 83.9944 0.703428C84.3614 1.06514 84.5431 1.60315 84.5431 2.30839V20.0321H94.3335C94.9495 20.0321 95.4165 20.1793 95.7327 20.4902C96.067 20.801 96.2142 21.2445 96.2142 21.817C96.2142 22.3896 96.0489 22.8331 95.7327 23.1603C95.3984 23.4874 94.9332 23.6347 94.3335 23.6347H82.4299V23.651H82.4281Z" fill="#FF8C00"></path>
  <path d="M106.753 23.98C104.889 23.98 103.274 23.6365 101.925 22.9476C100.577 22.2605 99.5268 21.2935 98.7945 20.0321C98.0622 18.7707 97.6951 17.2802 97.6951 15.5444C97.6951 13.8085 98.044 12.3835 98.7599 11.1221C99.4759 9.86065 100.443 8.87731 101.691 8.15753C102.939 7.43593 104.355 7.07604 105.952 7.07604C107.117 7.07604 108.167 7.27235 109.099 7.63224C110.031 8.00849 110.831 8.55014 111.496 9.25356C112.161 9.9588 112.661 10.8258 113.011 11.8255C113.36 12.8416 113.527 13.9721 113.527 15.2318C113.527 15.6244 113.393 15.937 113.111 16.1497C112.828 16.3623 112.428 16.4605 111.914 16.4605H101.091V14.0685H110.566L110.033 14.5592C110.033 13.5432 109.882 12.6925 109.582 12.0036C109.284 11.3166 108.834 10.7913 108.267 10.4314C107.702 10.0715 106.984 9.88973 106.121 9.88973C105.172 9.88973 104.373 10.1024 103.706 10.5459C103.041 10.9712 102.541 11.5783 102.192 12.3635C101.842 13.1487 101.676 14.083 101.676 15.1645V15.3935C101.676 17.2112 102.109 18.5707 102.976 19.4559C103.84 20.3556 105.123 20.7992 106.804 20.7992C107.387 20.7992 108.052 20.7337 108.787 20.5865C109.519 20.4393 110.202 20.1939 110.867 19.8322C111.334 19.5704 111.748 19.4559 112.115 19.4886C112.483 19.5214 112.766 19.6522 112.982 19.8649C113.198 20.0939 113.331 20.3575 113.366 20.6846C113.415 21.0118 113.347 21.3408 113.182 21.668C113.017 21.9952 112.731 22.2896 112.315 22.5368C111.532 23.0294 110.618 23.3893 109.602 23.6183C108.57 23.8473 107.62 23.9618 106.755 23.9618V23.98H106.753Z" fill="#FF8C00"></path>
  <path d="M119.006 23.9146C118.323 23.9146 117.808 23.7346 117.458 23.3729C117.091 23.013 116.925 22.4877 116.925 21.8007V9.25356C116.925 8.5665 117.109 8.0412 117.458 7.69767C117.823 7.33778 118.323 7.17419 118.971 7.17419C119.62 7.17419 120.138 7.35414 120.487 7.69767C120.852 8.05756 121.019 8.5665 121.019 9.25356V11.5147L120.654 10.6786C121.154 9.49894 121.919 8.61558 122.969 8.00849C124.017 7.40322 125.2 7.09058 126.532 7.09058C127.864 7.09058 128.945 7.33596 129.812 7.82672C130.661 8.31748 131.311 9.05544 131.744 10.0388C132.176 11.0221 132.376 12.2654 132.376 13.774V21.8007C132.376 22.4877 132.194 23.013 131.843 23.3729C131.478 23.7328 130.962 23.9146 130.295 23.9146C129.628 23.9146 129.098 23.7346 128.731 23.3729C128.364 23.013 128.18 22.4877 128.18 21.8007V13.9721C128.18 12.7107 127.948 11.7946 127.448 11.2202C126.966 10.6477 126.216 10.3514 125.2 10.3514C123.968 10.3514 122.987 10.7277 122.253 11.4983C121.521 12.269 121.154 13.2669 121.154 14.5283V21.8007C121.154 23.2093 120.438 23.9291 119.022 23.9291L119.004 23.9128H119.006V23.9146Z" fill="#FF8C00"></path>
  <path d="M142.997 23.98C141.565 23.98 140.3 23.6365 139.201 22.9476C138.101 22.2605 137.253 21.2772 136.653 20.0158C136.037 18.738 135.737 17.2475 135.737 15.5117C135.737 13.7758 136.035 12.269 136.653 11.0076C137.253 9.7625 138.101 8.79552 139.201 8.10845C140.3 7.42139 141.565 7.07604 142.997 7.07604C144.429 7.07604 145.561 7.40321 146.593 8.07574C147.625 8.74644 148.308 9.61527 148.673 10.6968H148.306V2.08119C148.306 1.39413 148.49 0.86883 148.839 0.525298C149.204 0.165407 149.72 0.00181961 150.387 0.00181961C151.054 0.00181961 151.584 0.181766 151.951 0.525298C152.316 0.885189 152.5 1.39413 152.5 2.08119V21.8025C152.5 22.4896 152.316 23.0148 151.968 23.3747C151.602 23.7346 151.086 23.9164 150.419 23.9164C149.753 23.9164 149.222 23.7364 148.871 23.3747C148.504 23.0148 148.339 22.4896 148.339 21.8025V19.2142L148.704 20.2139C148.372 21.3608 147.688 22.2769 146.64 22.9658C145.608 23.6528 144.392 23.9982 142.993 23.9982V23.9818H142.997V23.98ZM144.18 20.8173C145.012 20.8173 145.744 20.621 146.376 20.2266C147.009 19.834 147.492 19.2433 147.841 18.458C148.19 17.6728 148.357 16.6895 148.357 15.5262C148.357 13.7577 147.974 12.4308 147.209 11.562C146.442 10.6931 145.426 10.2514 144.178 10.2514C143.346 10.2514 142.613 10.4477 141.981 10.824C141.349 11.2166 140.865 11.791 140.516 12.5762C140.168 13.3614 140 14.3447 140 15.508C140 17.2602 140.384 18.5871 141.149 19.4723C141.916 20.372 142.929 20.8155 144.18 20.8155V20.8173Z" fill="#FF8C00"></path>
  <path d="M31.2719 4.2678H33.8431C34.5535 4.2678 35.1277 4.84399 35.1277 5.55287C35.1277 6.26356 34.5517 6.83793 33.8431 6.83793H31.2719C30.5614 6.83793 29.9872 6.26174 29.9872 5.55287C29.9872 4.84217 30.5632 4.2678 31.2719 4.2678Z" fill="#062537"></path>
</svg>
